# File produced by Open Asset Import Library (http://www.assimp.sf.net)
# (assimp v3.1.13472455)

mtllib Base-Corridor.mtl

# vertex positions
v 0.500000 0.000000 -2.000000
v 1.000000 0.000000 -2.000000
v 1.000000 0.000000 -2.400000
v 0.500000 0.000000 -2.400000
v -1.161801 1.521743 -2.000000
v -1.161801 1.521743 -2.400000
v -1.000000 2.000000 -2.400000
v -1.000000 2.000000 -2.000000
v -1.000000 0.000000 -2.000000
v -1.000000 0.000000 -2.400000
v -1.161801 0.478257 -2.400000
v -1.161801 0.478257 -2.000000
v -1.234314 1.000000 -2.400000
v -1.234314 1.000000 -2.000000
v -0.500000 0.000000 -2.000000
v -0.500000 0.000000 -2.400000
v 0.000000 0.000000 -2.000000
v 0.000000 0.000000 -2.400000
v 1.000000 2.000000 -2.400000
v 1.000000 2.000000 -2.500000
v 0.500000 2.000000 -2.500000
v 0.500000 2.000000 -2.400000
v 0.500000 0.000000 -2.500000
v 1.000000 0.000000 -2.500000
v -1.161801 1.521743 -2.500000
v -1.234314 1.000000 -2.500000
v -1.000000 2.000000 -2.500000
v -0.500000 0.000000 -2.500000
v -1.000000 0.000000 -2.500000
v -0.500000 2.000000 -2.500000
v -1.161801 0.478257 -2.500000
v 1.161801 0.478257 -2.500000
v 1.161801 1.521743 -2.500000
v 1.234314 1.000000 -2.500000
v -0.500000 2.000000 -2.400000
v 1.161801 0.478257 -2.400000
v 1.161801 1.521743 -2.400000
v 1.234314 1.000000 -2.400000
v 0.000000 2.000000 -2.400000
v 0.500000 2.000000 -2.000000
v 0.000000 2.000000 -2.000000
v -0.500000 2.000000 -2.000000
v 1.234314 1.000000 -2.000000
v 1.161801 1.521743 -2.000000
v 1.161801 0.478257 -2.000000
v 1.000000 2.000000 -2.000000

# UV coordinates
vt 0.550000 0.916667
vt 0.600000 0.916667
vt 0.600000 1.000000
vt 0.550000 1.000000
vt 0.400000 0.916667
vt 0.400000 1.000000
vt 0.450000 0.916667
vt 0.450000 1.000000
vt 0.500000 0.916667
vt 0.500000 1.000000
vt 0.000000 0.000000

# vertex normals
vn 0.000000 1.000000 0.000000
vn 0.947254 -0.320484 0.000000
vn 0.947254 0.320484 0.000000
vn 0.990474 0.137696 0.000000
vn 0.990474 -0.137696 0.000000
vn 0.000000 -1.000000 0.000000
vn -0.990474 0.137696 0.000000
vn -0.947254 0.320484 0.000000
vn 0.000000 0.000000 -1.000000
vn 1.000000 0.000000 0.000000
vn -1.000000 0.000000 0.000000
vn -0.947254 -0.320484 0.000000
vn -0.990474 -0.137696 0.000000
vn 0.000000 0.000000 1.000000

# Mesh
g Plane
usemtl DefaultMaterial
f 4/4/1 1/1/1 2/2/1
f 2/2/1 3/3/1 4/4/1
f 8/5/2 5/5/2 6/6/2
f 6/6/2 7/6/2 8/5/2
f 12/5/3 9/5/3 10/6/3
f 10/6/3 11/6/3 12/5/3
f 14/5/4 12/5/4 11/6/4
f 11/6/4 13/6/4 14/5/4
f 5/5/5 14/5/5 13/6/5
f 13/6/5 6/6/5 5/5/5
f 10/6/1 9/5/1 15/7/1
f 15/7/1 16/8/1 10/6/1
f 16/8/1 15/7/1 17/9/1
f 17/9/1 18/10/1 16/8/1
f 18/10/1 17/9/1 1/1/1
f 1/1/1 4/4/1 18/10/1
f 22/4/1 19/3/1 20/3/1
f 20/3/1 21/4/1 22/4/1
f 3/3/6 4/4/6 23/4/6
f 23/4/6 24/3/6 3/3/6
f 13/6/7 6/6/7 25/6/7
f 25/6/7 26/6/7 13/6/7
f 6/6/8 7/6/8 27/6/8
f 27/6/8 25/6/8 6/6/8
f 30/8/9 28/8/9 29/6/9
f 29/6/9 27/6/9 30/8/9
f 23/4/9 21/4/9 20/3/9
f 20/3/9 24/3/9 23/4/9
f 26/6/9 25/6/9 27/6/9
f 26/6/9 27/6/9 29/6/9
f 29/6/9 31/6/9 26/6/9
f 34/3/9 32/3/9 24/3/9
f 34/3/9 24/3/9 20/3/9
f 20/3/9 33/3/9 34/3/9
f 35/11/10 16/11/10 28/11/10
f 28/11/10 30/11/10 35/11/10
f 7/6/1 35/8/1 30/8/1
f 30/8/1 27/6/1 7/6/1
f 4/11/11 22/11/11 21/11/11
f 21/11/11 23/11/11 4/11/11
f 36/3/2 3/3/2 24/3/2
f 24/3/2 32/3/2 36/3/2
f 19/3/3 37/3/3 33/3/3
f 33/3/3 20/3/3 19/3/3
f 37/3/4 38/3/4 34/3/4
f 34/3/4 33/3/4 37/3/4
f 10/6/12 11/6/12 31/6/12
f 31/6/12 29/6/12 10/6/12
f 38/3/5 36/3/5 32/3/5
f 32/3/5 34/3/5 38/3/5
f 16/8/6 10/6/6 29/6/6
f 29/6/6 28/8/6 16/8/6
f 11/6/13 13/6/13 26/6/13
f 26/6/13 31/6/13 11/6/13
f 28/11/1 16/11/1 4/4/1
f 4/4/1 23/4/1 28/11/1
f 21/4/6 22/4/6 35/11/6
f 35/11/6 30/11/6 21/4/6
f 36/11/14 38/11/14 37/11/14
f 36/11/14 37/11/14 19/11/14
f 36/11/14 19/11/14 22/11/14
f 36/11/14 22/11/14 4/11/14
f 4/11/14 3/11/14 36/11/14
f 16/11/14 35/11/14 7/11/14
f 16/11/14 7/11/14 6/11/14
f 16/11/14 6/11/14 13/11/14
f 16/11/14 13/11/14 11/11/14
f 11/11/14 10/11/14 16/11/14
f 41/9/6 39/10/6 22/4/6
f 22/4/6 40/1/6 41/9/6
f 42/7/6 35/8/6 39/10/6
f 39/10/6 41/9/6 42/7/6
f 8/5/6 7/6/6 35/8/6
f 35/8/6 42/7/6 8/5/6
f 37/3/13 38/3/13 43/2/13
f 43/2/13 44/2/13 37/3/13
f 38/3/7 36/3/7 45/2/7
f 45/2/7 43/2/7 38/3/7
f 36/3/8 3/3/8 2/2/8
f 2/2/8 45/2/8 36/3/8
f 40/1/6 22/4/6 19/3/6
f 19/3/6 46/2/6 40/1/6
f 19/3/12 37/3/12 44/2/12
f 44/2/12 46/2/12 19/3/12
