# File produced by Open Asset Import Library (http://www.assimp.sf.net)
# (assimp v3.1.13472455)

mtllib I-Corridor.mtl

# vertex positions
v 1.000000 0.000000 2.400000
v 0.500000 0.000000 -2.400000
v 0.500000 0.000000 2.400000
v 1.161801 1.521743 2.400000
v 1.000000 2.000000 -2.400000
v 1.161801 1.521743 -2.400000
v -1.161801 1.521743 -2.400000
v -1.000000 2.000000 2.400000
v -1.161801 1.521743 2.400000
v 0.500000 2.000000 2.400000
v 0.500000 2.000000 -2.400000
v -1.000000 0.000000 -2.400000
v -1.161801 0.478257 2.400000
v -1.000000 0.000000 2.400000
v -1.161801 0.478257 -2.400000
v -1.234314 1.000000 2.400000
v -1.234314 1.000000 -2.400000
v 1.161801 0.478257 -2.400000
v 1.000000 0.000000 -2.400000
v 1.161801 0.478257 2.400000
v 1.234314 1.000000 -2.400000
v 1.234314 1.000000 2.400000
v -0.500000 0.000000 2.400000
v 0.000000 0.000000 2.400000
v -0.500000 0.000000 -2.400000
v 0.000000 0.000000 -2.400000
v -0.500000 2.000000 -2.400000
v -1.000000 2.000000 -2.400000
v 0.000000 2.000000 -2.400000
v -0.500000 2.000000 2.400000
v 0.000000 2.000000 2.400000
v 1.000000 2.000000 -2.500000
v 0.500000 0.000000 -2.500000
v -1.000000 2.000000 2.500000
v 1.161801 0.478257 2.500000
v -0.500000 2.000000 2.500000
v -1.000000 0.000000 2.500000
v -1.161801 1.521743 -2.500000
v -1.000000 2.000000 -2.500000
v -1.000000 0.000000 -2.500000
v -0.500000 2.000000 -2.500000
v -0.500000 0.000000 -2.500000
v 0.500000 2.000000 -2.500000
v -1.161801 0.478257 -2.500000
v 1.000000 0.000000 -2.500000
v 1.161801 1.521743 -2.500000
v 1.234314 1.000000 -2.500000
v 1.161801 0.478257 -2.500000
v -1.234314 1.000000 -2.500000
v -0.500000 0.000000 2.500000
v 1.000000 2.000000 2.500000
v 0.500000 0.000000 2.500000
v 1.000000 0.000000 2.500000
v -1.161801 1.521743 2.500000
v 0.500000 2.000000 2.500000
v 1.000000 2.000000 2.400000
v 1.234314 1.000000 2.500000
v 1.161801 1.521743 2.500000
v -1.234314 1.000000 2.500000
v -1.161801 0.478257 2.500000

# UV coordinates
vt 0.252017 0.545233
vt 0.307811 0.009614
vt 0.307811 0.545233
vt 0.547788 0.545233
vt 0.494421 0.009614
vt 0.547788 0.009614
vt 0.790191 0.545233
vt 0.736824 0.009614
vt 0.790191 0.009614
vt 0.232789 0.009614
vt 0.176995 0.545233
vt 0.176995 0.009614
vt 0.959998 0.545233
vt 0.906631 0.009614
vt 0.959998 0.009614
vt 0.906631 0.545233
vt 0.848411 0.009614
vt 0.848411 0.545233
vt 0.717595 0.545233
vt 0.664228 0.009614
vt 0.717595 0.009614
vt 0.664228 0.545233
vt 0.606008 0.009614
vt 0.606008 0.545233
vt 0.419398 0.545233
vt 0.475192 0.009614
vt 0.475192 0.545233
vt 0.363605 0.545233
vt 0.419398 0.009614
vt 0.363605 0.009614
vt 0.065408 0.009614
vt 0.009614 0.545233
vt 0.009614 0.009614
vt 0.121202 0.009614
vt 0.065408 0.545233
vt 0.121202 0.545233
vt 0.142323 0.806865
vt 0.131164 0.862659
vt 0.131164 0.806865
vt 0.263872 0.806865
vt 0.252714 0.862659
vt 0.252714 0.806865
vt 0.161551 0.862659
vt 0.172710 0.806865
vt 0.172710 0.862659
vt 0.879740 0.617829
vt 0.890898 0.564462
vt 0.890898 0.617829
vt 0.970902 0.787636
vt 0.982061 0.564462
vt 0.982061 0.787636
vt 0.951673 0.564462
vt 0.940515 0.617829
vt 0.940515 0.564462
vt 0.818965 0.734269
vt 0.830124 0.676049
vt 0.830124 0.734269
vt 0.818965 0.787636
vt 0.830124 0.787636
vt 0.773590 0.564462
vt 0.717796 0.787636
vt 0.717796 0.564462
vt 0.642774 0.787636
vt 0.698567 0.564462
vt 0.698567 0.787636
vt 0.773590 0.787636
vt 0.791645 0.617829
vt 0.642774 0.564462
vt 0.624719 0.734269
vt 0.990386 0.009614
vt 0.979227 0.232789
vt 0.979227 0.009614
vt 0.294260 0.806865
vt 0.283101 0.862659
vt 0.283101 0.806865
vt 0.910127 0.787636
vt 0.921286 0.564462
vt 0.921286 0.787636
vt 0.990386 0.252017
vt 0.979227 0.305385
vt 0.979227 0.252017
vt 0.990386 0.421825
vt 0.979227 0.475192
vt 0.979227 0.421825
vt 0.990386 0.363605
vt 0.979227 0.363605
vt 0.818965 0.617829
vt 0.830124 0.564462
vt 0.830124 0.617829
vt 0.990386 0.305385
vt 0.203098 0.806865
vt 0.191939 0.862659
vt 0.191939 0.806865
vt 0.818965 0.676049
vt 0.100777 0.806865
vt 0.111935 0.918452
vt 0.100777 0.918452
vt 0.070389 0.806865
vt 0.081548 0.918452
vt 0.070389 0.918452
vt 0.496230 0.787636
vt 0.440436 0.564462
vt 0.496230 0.564462
vt 0.368914 0.787636
vt 0.313121 0.564462
vt 0.368914 0.564462
vt 0.386969 0.617829
vt 0.440436 0.787636
vt 0.422381 0.734269
vt 0.860511 0.564462
vt 0.849352 0.787636
vt 0.849352 0.564462
vt 0.343876 0.862659
vt 0.355035 0.806865
vt 0.355035 0.862659
vt 0.879740 0.676049
vt 0.890898 0.676049
vt 0.879740 0.734269
vt 0.890898 0.734269
vt 0.951673 0.734269
vt 0.940515 0.787636
vt 0.940515 0.734269
vt 0.951673 0.676049
vt 0.940515 0.676049
vt 0.951673 0.617829
vt 0.879740 0.787636
vt 0.890898 0.787636
vt 0.222326 0.862659
vt 0.233485 0.806865
vt 0.233485 0.862659
vt 0.313488 0.862659
vt 0.324647 0.806865
vt 0.324647 0.862659
vt 0.020773 0.918452
vt 0.009614 0.806865
vt 0.020773 0.806865
vt 0.051161 0.918452
vt 0.040002 0.806865
vt 0.051161 0.806865
vt 0.211952 0.564462
vt 0.267746 0.564462
vt 0.285801 0.617829
vt 0.118875 0.617829
vt 0.136930 0.564462
vt 0.192723 0.564462
vt 0.009614 0.564462
vt 0.065408 0.564462
vt 0.083463 0.617829
vt 0.523550 0.617829
vt 0.541605 0.564462
vt 0.597399 0.564462
vt 0.252017 0.009614
vt 0.494421 0.545233
vt 0.736824 0.545233
vt 0.232789 0.545233
vt 0.142323 0.862659
vt 0.263872 0.862659
vt 0.161551 0.806865
vt 0.879740 0.564462
vt 0.970902 0.564462
vt 0.799736 0.676049
vt 0.791645 0.734269
vt 0.616627 0.676049
vt 0.624719 0.617829
vt 0.990386 0.232789
vt 0.294260 0.862659
vt 0.910127 0.564462
vt 0.990386 0.475192
vt 0.818965 0.564462
vt 0.203098 0.862659
vt 0.111935 0.806865
vt 0.081548 0.806865
vt 0.313121 0.787636
vt 0.395061 0.676049
vt 0.386969 0.734269
vt 0.414290 0.676049
vt 0.422381 0.617829
vt 0.860511 0.787636
vt 0.343876 0.806865
vt 0.951673 0.787636
vt 0.222326 0.806865
vt 0.313488 0.806865
vt 0.009614 0.918452
vt 0.040002 0.918452
vt 0.293892 0.676049
vt 0.285801 0.734269
vt 0.211952 0.787636
vt 0.267746 0.787636
vt 0.192723 0.787636
vt 0.110783 0.676049
vt 0.136930 0.787636
vt 0.118875 0.734269
vt 0.091554 0.676049
vt 0.083463 0.734269
vt 0.009614 0.787636
vt 0.065408 0.787636
vt 0.597399 0.787636
vt 0.515458 0.676049
vt 0.541605 0.787636
vt 0.523550 0.734269

# vertex normals
vn 0.000000 1.000000 0.000000
vn -0.947254 -0.320484 0.000000
vn 0.947254 -0.320484 0.000000
vn 0.000000 -1.000000 0.000000
vn 0.947254 0.320484 0.000000
vn 0.990474 0.137696 0.000000
vn 0.990474 -0.137696 0.000000
vn -0.947254 0.320484 0.000000
vn -0.990474 0.137696 0.000000
vn -0.990474 -0.137696 0.000000
vn 1.000000 0.000000 0.000000
vn 0.000000 0.000000 -1.000000
vn -1.000000 0.000000 0.000000
vn 0.000000 0.000000 1.000000

# Mesh
g Plane
usemtl None
f 1/1/1 2/2/1 3/3/1
f 4/4/2 5/5/2 6/6/2
f 7/7/3 8/8/3 9/9/3
f 5/10/4 10/11/4 11/12/4
f 12/13/5 13/14/5 14/15/5
f 15/16/6 16/17/6 13/14/6
f 17/18/7 9/9/7 16/17/7
f 1/19/8 18/20/8 19/21/8
f 20/22/9 21/23/9 18/20/9
f 22/24/10 6/6/10 21/23/10
f 23/25/1 12/26/1 14/27/1
f 24/28/1 25/29/1 23/25/1
f 3/3/1 26/30/1 24/28/1
f 27/31/4 8/32/4 28/33/4
f 29/34/4 30/35/4 27/31/4
f 11/12/4 31/36/4 29/34/4
f 32/37/1 11/38/1 5/39/1
f 33/40/4 19/41/4 2/42/4
f 34/43/1 30/44/1 8/45/1
f 35/46/3 1/47/3 20/48/3
f 36/49/11 23/50/11 30/51/11
f 37/52/2 13/53/2 14/54/2
f 38/55/9 17/56/9 7/57/9
f 39/58/8 7/57/8 28/59/8
f 40/60/12 41/61/12 42/62/12
f 32/63/12 33/64/12 43/65/12
f 39/66/12 40/60/12 44/67/12
f 45/68/12 32/63/12 46/69/12
f 42/70/11 27/71/11 25/72/11
f 41/73/1 28/74/1 27/75/1
f 43/76/13 2/77/13 11/78/13
f 45/79/3 18/80/3 19/81/3
f 46/82/5 5/83/5 6/84/5
f 47/85/6 6/84/6 21/86/6
f 44/87/2 12/88/2 15/89/2
f 48/90/7 21/86/7 18/80/7
f 40/91/4 25/92/4 12/93/4
f 49/94/10 15/89/10 17/56/10
f 2/95/1 42/96/1 25/97/1
f 27/98/4 43/99/4 11/100/4
f 36/101/14 37/102/14 50/103/14
f 51/104/14 52/105/14 53/106/14
f 51/104/14 53/106/14 35/107/14
f 37/102/14 34/108/14 54/109/14
f 52/110/13 10/111/13 3/112/13
f 55/113/1 56/114/1 10/115/1
f 57/116/7 20/48/7 22/117/7
f 58/118/6 22/117/6 4/119/6
f 54/120/8 8/121/8 9/122/8
f 59/123/9 9/122/9 16/124/9
f 60/125/10 16/124/10 13/53/10
f 51/126/5 4/119/5 56/127/5
f 53/128/4 3/129/4 1/130/4
f 50/131/4 14/132/4 23/133/4
f 10/134/4 36/135/4 30/136/4
f 23/137/1 52/138/1 3/139/1
f 23/140/12 14/141/12 13/142/12
f 20/143/12 1/144/12 3/145/12
f 2/146/14 19/147/14 18/148/14
f 15/149/14 12/150/14 25/151/14
f 1/1/1 19/152/1 2/2/1
f 4/4/2 56/153/2 5/5/2
f 7/7/3 28/154/3 8/8/3
f 5/10/4 56/155/4 10/11/4
f 12/13/5 15/16/5 13/14/5
f 15/16/6 17/18/6 16/17/6
f 17/18/7 7/7/7 9/9/7
f 1/19/8 20/22/8 18/20/8
f 20/22/9 22/24/9 21/23/9
f 22/24/10 4/4/10 6/6/10
f 23/25/1 25/29/1 12/26/1
f 24/28/1 26/30/1 25/29/1
f 3/3/1 2/2/1 26/30/1
f 27/31/4 30/35/4 8/32/4
f 29/34/4 31/36/4 30/35/4
f 11/12/4 10/11/4 31/36/4
f 32/37/1 43/156/1 11/38/1
f 33/40/4 45/157/4 19/41/4
f 34/43/1 36/158/1 30/44/1
f 35/46/3 53/159/3 1/47/3
f 36/49/11 50/160/11 23/50/11
f 37/52/2 60/125/2 13/53/2
f 38/55/9 49/94/9 17/56/9
f 39/58/8 38/55/8 7/57/8
f 40/60/12 39/66/12 41/61/12
f 32/63/12 45/68/12 33/64/12
f 49/161/12 38/162/12 44/67/12
f 38/162/12 39/66/12 44/67/12
f 47/163/12 48/164/12 46/69/12
f 48/164/12 45/68/12 46/69/12
f 42/70/11 41/165/11 27/71/11
f 41/73/1 39/166/1 28/74/1
f 43/76/13 33/167/13 2/77/13
f 45/79/3 48/90/3 18/80/3
f 46/82/5 32/168/5 5/83/5
f 47/85/6 46/82/6 6/84/6
f 44/87/2 40/169/2 12/88/2
f 48/90/7 47/85/7 21/86/7
f 40/91/4 42/170/4 25/92/4
f 49/94/10 44/87/10 15/89/10
f 2/95/1 33/171/1 42/96/1
f 27/98/4 41/172/4 43/99/4
f 36/101/14 34/108/14 37/102/14
f 51/104/14 55/173/14 52/105/14
f 57/174/14 58/175/14 35/107/14
f 58/175/14 51/104/14 35/107/14
f 59/176/14 60/177/14 54/109/14
f 60/177/14 37/102/14 54/109/14
f 52/110/13 55/178/13 10/111/13
f 55/113/1 51/179/1 56/114/1
f 57/116/7 35/46/7 20/48/7
f 58/118/6 57/116/6 22/117/6
f 54/120/8 34/180/8 8/121/8
f 59/123/9 54/120/9 9/122/9
f 60/125/10 59/123/10 16/124/10
f 51/126/5 58/118/5 4/119/5
f 53/128/4 52/181/4 3/129/4
f 50/131/4 37/182/4 14/132/4
f 10/134/4 55/183/4 36/135/4
f 23/137/1 50/184/1 52/138/1
f 13/142/12 16/185/12 23/140/12
f 16/185/12 9/186/12 30/187/12
f 23/140/12 16/185/12 30/187/12
f 9/186/12 8/188/12 30/187/12
f 3/145/12 10/189/12 22/190/12
f 10/189/12 56/191/12 4/192/12
f 22/190/12 10/189/12 4/192/12
f 22/190/12 20/143/12 3/145/12
f 18/148/14 21/193/14 2/146/14
f 21/193/14 6/194/14 11/195/14
f 2/146/14 21/193/14 11/195/14
f 6/194/14 5/196/14 11/195/14
f 25/151/14 27/197/14 17/198/14
f 27/197/14 28/199/14 7/200/14
f 17/198/14 27/197/14 7/200/14
f 17/198/14 15/149/14 25/151/14
