# Blender 3.6.2
# www.blender.org
mtllib I-Corridor.mtl
o Plane
v -1.000000 0.000000 2.400000
v 1.000000 0.000000 2.400000
v 1.000000 0.000000 -2.400000
v -1.000000 0.000000 -2.400000
v -1.000000 2.000000 2.400000
v 1.000000 2.000000 2.400000
v 1.000000 2.000000 -2.400000
v -1.000000 2.000000 -2.400000
v -1.161801 1.521743 2.400000
v -1.234314 1.000000 2.400000
v -1.161801 0.478257 2.400000
v -1.161801 0.478257 -2.400000
v -1.234314 1.000000 -2.400000
v -1.161801 1.521743 -2.400000
v 1.161801 1.521743 -2.400000
v 1.234314 1.000000 -2.400000
v 1.161801 0.478257 -2.400000
v 1.161801 0.478257 2.400000
v 1.234314 1.000000 2.400000
v 1.161801 1.521743 2.400000
v -0.500000 0.000000 2.400000
v 0.000000 0.000000 2.400000
v 0.500000 0.000000 2.400000
v 0.500000 0.000000 -2.400000
v 0.000000 0.000000 -2.400000
v -0.500000 0.000000 -2.400000
v -0.500000 2.000000 2.400000
v 0.000000 2.000000 2.400000
v 0.500000 2.000000 2.400000
v -0.500000 2.000000 -2.400000
v 0.000000 2.000000 -2.400000
v 0.500000 2.000000 -2.400000
v -0.500000 0.000000 -2.500000
v -1.000000 0.000000 -2.500000
v 1.161801 0.478257 -2.500000
v 1.000000 0.000000 -2.500000
v -1.161801 1.521743 -2.500000
v -1.000000 2.000000 -2.500000
v 0.500000 2.000000 -2.500000
v 1.000000 2.000000 -2.500000
v -1.161801 0.478257 -2.500000
v -1.234314 1.000000 -2.500000
v 1.161801 1.521743 -2.500000
v 1.234314 1.000000 -2.500000
v 0.500000 0.000000 -2.500000
v -0.500000 2.000000 -2.500000
v 0.500000 0.000000 2.500000
v 1.000000 0.000000 2.500000
v 1.161801 1.521743 2.500000
v 1.000000 2.000000 2.500000
v -1.161801 0.478257 2.500000
v -1.000000 0.000000 2.500000
v 0.500000 2.000000 2.500000
v -1.000000 2.000000 2.500000
v -1.161801 1.521743 2.500000
v -1.234314 1.000000 2.500000
v 1.161801 0.478257 2.500000
v 1.234314 1.000000 2.500000
v -0.500000 0.000000 2.500000
v -0.500000 2.000000 2.500000
vn -0.0000 1.0000 -0.0000
vn -0.9473 -0.3205 -0.0000
vn 0.9473 -0.3205 -0.0000
vn -0.0000 -1.0000 -0.0000
vn 0.9473 0.3205 -0.0000
vn 0.9905 0.1377 -0.0000
vn 0.9905 -0.1377 -0.0000
vn -0.9473 0.3205 -0.0000
vn -0.9905 0.1377 -0.0000
vn -0.9905 -0.1377 -0.0000
vn 1.0000 -0.0000 -0.0000
vn -0.0000 -0.0000 -1.0000
vn -1.0000 -0.0000 -0.0000
vn -0.0000 -0.0000 1.0000
vt 0.685755 0.003490
vt 0.746510 0.003490
vt 0.746510 0.586739
vt 0.685755 0.586739
vt 0.061603 0.003490
vt 0.061603 0.586739
vt 0.003490 0.586739
vt 0.003490 0.003490
vt 0.311603 0.003490
vt 0.311603 0.586739
vt 0.253490 0.586739
vt 0.253490 0.003490
vt 0.814245 0.586739
vt 0.753490 0.586739
vt 0.753490 0.003490
vt 0.814245 0.003490
vt 0.496510 0.003490
vt 0.496510 0.586739
vt 0.438397 0.586739
vt 0.438397 0.003490
vt 0.375000 0.586739
vt 0.375000 0.003490
vt 0.246510 0.003490
vt 0.246510 0.586739
vt 0.188397 0.586739
vt 0.188397 0.003490
vt 0.125000 0.586739
vt 0.125000 0.003490
vt 0.503490 0.003490
vt 0.564245 0.003490
vt 0.564245 0.586739
vt 0.503490 0.586739
vt 0.625000 0.003490
vt 0.625000 0.586739
vt 0.996510 0.586739
vt 0.935755 0.586739
vt 0.935755 0.003490
vt 0.996510 0.003490
vt 0.875000 0.586739
vt 0.875000 0.003490
vt 0.003490 0.843718
vt 0.015641 0.843718
vt 0.015641 0.904474
vt 0.003490 0.904474
vt 0.022620 0.843718
vt 0.034771 0.843718
vt 0.034771 0.904474
vt 0.022620 0.904474
vt 0.053902 0.904474
vt 0.041751 0.904474
vt 0.041751 0.843718
vt 0.053902 0.843718
vt 0.773140 0.778626
vt 0.785291 0.778626
vt 0.785291 0.836739
vt 0.773140 0.836739
vt 0.792270 0.593718
vt 0.804421 0.593718
vt 0.804421 0.836739
vt 0.792270 0.836739
vt 0.823552 0.836739
vt 0.811401 0.836739
vt 0.811401 0.778626
vt 0.823552 0.778626
vt 0.830531 0.651832
vt 0.842682 0.651832
vt 0.842682 0.715229
vt 0.830531 0.715229
vt 0.830531 0.593718
vt 0.842682 0.593718
vt 0.092716 0.836739
vt 0.031961 0.836739
vt 0.031961 0.593718
vt 0.092716 0.593718
vt 0.099696 0.593718
vt 0.160451 0.593718
vt 0.160451 0.836739
vt 0.099696 0.836739
vt 0.012301 0.651832
vt 0.012301 0.778626
vt 0.003490 0.715229
vt 0.180112 0.778626
vt 0.180112 0.651832
vt 0.188923 0.715229
vt 0.861813 0.836739
vt 0.849662 0.836739
vt 0.849662 0.593718
vt 0.861813 0.593718
vt 0.060881 0.843718
vt 0.073032 0.843718
vt 0.073032 0.904474
vt 0.060881 0.904474
vt 0.868793 0.593718
vt 0.880944 0.593718
vt 0.880944 0.836739
vt 0.868793 0.836739
vt 0.900074 0.836739
vt 0.887923 0.836739
vt 0.887923 0.778626
vt 0.900074 0.778626
vt 0.900074 0.651832
vt 0.887923 0.651832
vt 0.887923 0.593718
vt 0.900074 0.593718
vt 0.900074 0.715229
vt 0.887923 0.715229
vt 0.830531 0.778626
vt 0.842682 0.778626
vt 0.842682 0.836739
vt 0.830531 0.836739
vt 0.080012 0.843718
vt 0.092163 0.843718
vt 0.092163 0.904474
vt 0.080012 0.904474
vt 0.926184 0.715229
vt 0.926184 0.593718
vt 0.938335 0.593718
vt 0.938335 0.715229
vt 0.926184 0.843718
vt 0.926184 0.722208
vt 0.938335 0.722208
vt 0.938335 0.843718
vt 0.195902 0.836739
vt 0.195902 0.593718
vt 0.256657 0.593718
vt 0.256657 0.836739
vt 0.320580 0.836739
vt 0.320580 0.593718
vt 0.381335 0.593718
vt 0.381335 0.836739
vt 0.300920 0.651832
vt 0.300920 0.778626
vt 0.292109 0.715229
vt 0.276318 0.778626
vt 0.276318 0.651832
vt 0.285129 0.715229
vt 0.919205 0.836739
vt 0.907054 0.836739
vt 0.907054 0.593718
vt 0.919205 0.593718
vt 0.111294 0.904474
vt 0.099143 0.904474
vt 0.099143 0.843718
vt 0.111294 0.843718
vt 0.773140 0.715229
vt 0.785291 0.715229
vt 0.773140 0.651832
vt 0.785291 0.651832
vt 0.823552 0.651832
vt 0.811401 0.651832
vt 0.811401 0.593718
vt 0.823552 0.593718
vt 0.823552 0.715229
vt 0.811401 0.715229
vt 0.773140 0.593718
vt 0.785291 0.593718
vt 0.130424 0.904474
vt 0.118273 0.904474
vt 0.118273 0.843718
vt 0.130424 0.843718
vt 0.149555 0.904474
vt 0.137404 0.904474
vt 0.137404 0.843718
vt 0.149555 0.843718
vt 0.957466 0.593718
vt 0.957466 0.715229
vt 0.945315 0.715229
vt 0.945315 0.593718
vt 0.957466 0.722208
vt 0.957466 0.843718
vt 0.945315 0.843718
vt 0.945315 0.722208
vt 0.388315 0.715229
vt 0.397126 0.651832
vt 0.416786 0.593718
vt 0.477542 0.593718
vt 0.477542 0.836739
vt 0.416786 0.836739
vt 0.397126 0.778626
vt 0.484521 0.593718
vt 0.545276 0.593718
vt 0.564937 0.651832
vt 0.573748 0.715229
vt 0.564937 0.778626
vt 0.545276 0.836739
vt 0.484521 0.836739
vt 0.580727 0.715229
vt 0.589538 0.651832
vt 0.609199 0.593718
vt 0.669954 0.593718
vt 0.669954 0.836739
vt 0.609199 0.836739
vt 0.589538 0.778626
vt 0.676934 0.593718
vt 0.737689 0.593718
vt 0.757349 0.651832
vt 0.766160 0.715229
vt 0.757349 0.778626
vt 0.737689 0.836739
vt 0.676934 0.836739
s 0
f 23/1/1 2/2/1 3/3/1 24/4/1
f 15/5/2 20/6/2 6/7/2 7/8/2
f 9/9/3 14/10/3 8/11/3 5/12/3
f 32/13/4 7/14/4 6/15/4 29/16/4
f 1/17/5 4/18/5 12/19/5 11/20/5
f 11/20/6 12/19/6 13/21/6 10/22/6
f 10/22/7 13/21/7 14/10/7 9/9/7
f 3/23/8 2/24/8 18/25/8 17/26/8
f 17/26/9 18/25/9 19/27/9 16/28/9
f 16/28/10 19/27/10 20/6/10 15/5/10
f 1/29/1 21/30/1 26/31/1 4/32/1
f 21/30/1 22/33/1 25/34/1 26/31/1
f 22/33/1 23/1/1 24/4/1 25/34/1
f 8/35/4 30/36/4 27/37/4 5/38/4
f 30/36/4 31/39/4 28/40/4 27/37/4
f 31/39/4 32/13/4 29/16/4 28/40/4
f 7/41/1 40/42/1 39/43/1 32/44/1
f 24/45/4 45/46/4 36/47/4 3/48/4
f 5/49/1 54/50/1 60/51/1 27/52/1
f 18/53/3 57/54/3 48/55/3 2/56/3
f 27/57/11 60/58/11 59/59/11 21/60/11
f 1/61/2 52/62/2 51/63/2 11/64/2
f 14/65/9 37/66/9 42/67/9 13/68/9
f 8/69/8 38/70/8 37/66/8 14/65/8
f 33/71/12 34/72/12 38/73/12 46/74/12
f 39/75/12 40/76/12 36/77/12 45/78/12
f 37/79/12 38/73/12 34/72/12 41/80/12 42/81/12
f 35/82/12 36/77/12 40/76/12 43/83/12 44/84/12
f 26/85/11 33/86/11 46/87/11 30/88/11
f 30/89/1 46/90/1 38/91/1 8/92/1
f 32/93/13 39/94/13 45/95/13 24/96/13
f 3/97/3 36/98/3 35/99/3 17/100/3
f 15/101/5 43/102/5 40/103/5 7/104/5
f 16/105/6 44/106/6 43/102/6 15/101/6
f 12/107/2 41/108/2 34/109/2 4/110/2
f 17/100/7 35/99/7 44/106/7 16/105/7
f 4/111/4 34/112/4 33/113/4 26/114/4
f 13/68/10 42/67/10 41/108/10 12/107/10
f 26/115/1 24/116/1 45/117/1 33/118/1
f 32/119/4 30/120/4 46/121/4 39/122/4
f 59/123/14 60/124/14 54/125/14 52/126/14
f 48/127/14 50/128/14 53/129/14 47/130/14
f 49/131/14 50/128/14 48/127/14 57/132/14 58/133/14
f 51/134/14 52/126/14 54/125/14 55/135/14 56/136/14
f 23/137/13 47/138/13 53/139/13 29/140/13
f 29/141/1 53/142/1 50/143/1 6/144/1
f 19/145/7 58/146/7 57/54/7 18/53/7
f 20/147/6 49/148/6 58/146/6 19/145/6
f 9/149/8 55/150/8 54/151/8 5/152/8
f 10/153/9 56/154/9 55/150/9 9/149/9
f 11/64/10 51/63/10 56/154/10 10/153/10
f 6/155/5 50/156/5 49/148/5 20/147/5
f 2/157/4 48/158/4 47/159/4 23/160/4
f 21/161/4 59/162/4 52/163/4 1/164/4
f 27/165/4 29/166/4 53/167/4 60/168/4
f 23/169/1 21/170/1 59/171/1 47/172/1
f 10/173/12 9/174/12 5/175/12 27/176/12 21/177/12 1/178/12 11/179/12
f 29/180/12 6/181/12 20/182/12 19/183/12 18/184/12 2/185/12 23/186/12
f 16/187/14 15/188/14 7/189/14 32/190/14 24/191/14 3/192/14 17/193/14
f 30/194/14 8/195/14 14/196/14 13/197/14 12/198/14 4/199/14 26/200/14
