# Blender 3.6.2
# www.blender.org
mtllib IL-Corridor.mtl
o Plane
v 1.000000 0.000000 -2.400000
v -1.000000 0.000000 -2.400000
v 1.000000 2.000000 -2.400000
v -1.000000 2.000000 -2.400000
v -1.161801 0.478257 -2.400000
v -1.234314 1.000000 -2.400000
v -1.161801 1.521743 -2.400000
v 1.161801 1.521743 -2.400000
v 1.234314 1.000000 -2.400000
v 1.161801 0.478257 -2.400000
v 0.500000 0.000000 -2.400000
v 0.000000 0.000000 -2.400000
v -0.500000 0.000000 -2.400000
v -0.500000 2.000000 -2.400000
v 0.000000 2.000000 -2.400000
v 0.500000 2.000000 -2.400000
v -0.500000 0.000000 -2.500000
v -1.000000 0.000000 -2.500000
v 1.161801 0.478257 -2.500000
v 1.000000 0.000000 -2.500000
v -1.161801 1.521743 -2.500000
v -1.000000 2.000000 -2.500000
v 0.500000 2.000000 -2.500000
v 1.000000 2.000000 -2.500000
v -1.161801 0.478257 -2.500000
v -1.234314 1.000000 -2.500000
v 1.161801 1.521743 -2.500000
v 1.234314 1.000000 -2.500000
v 0.500000 0.000000 -2.500000
v -0.500000 2.000000 -2.500000
v -1.000000 0.000000 -2.000000
v 1.000000 0.000000 -2.000000
v -1.000000 2.000000 -2.000000
v 1.000000 2.000000 -2.000000
v -1.161801 0.478257 -2.000000
v -1.234314 1.000000 -2.000000
v -1.161801 1.521743 -2.000000
v 1.161801 0.478257 -2.000000
v 1.234314 1.000000 -2.000000
v 1.161801 1.521743 -2.000000
v -0.500000 0.000000 -2.000000
v 0.000000 0.000000 -2.000000
v 0.500000 0.000000 -2.000000
v -0.500000 2.000000 -2.000000
v 0.000000 2.000000 -2.000000
v 0.500000 2.000000 -2.000000
v -2.400000 0.000000 -1.000000
v -2.400000 2.000000 -1.000000
v -2.400000 1.521743 -1.161801
v -2.400000 1.000000 -1.234314
v -2.400000 0.478257 -1.161801
v -2.400000 0.000000 -0.500000
v -2.400000 0.000000 0.000000
v -2.400000 2.000000 0.000000
v -2.400000 2.000000 -0.500000
v -2.500000 0.478257 -1.161801
v -2.500000 0.000000 -1.000000
v -2.500000 2.000000 -0.500000
v -2.500000 2.000000 -1.000000
v -2.500000 1.521743 -1.161801
v -2.500000 1.000000 -1.234314
v -2.500000 0.000000 -0.500000
v -2.000000 0.000000 -1.000000
v -2.000000 2.000000 -1.000000
v -2.000000 0.478257 -1.161801
v -2.000000 1.000000 -1.234314
v -2.000000 1.521743 -1.161801
v -2.000000 0.000000 0.000000
v -2.000000 0.000000 -0.500000
v -2.000000 2.000000 0.000000
v -2.000000 2.000000 -0.500000
v -1.000000 0.000000 -1.000000
v -1.000000 0.000000 0.000000
v -1.000000 0.000000 -0.500000
v 1.000000 0.000000 -1.000000
v 1.000000 0.000000 0.000000
v 1.000000 0.000000 -0.500000
v 0.500000 0.000000 -1.000000
v 0.000000 0.000000 -1.000000
v -0.500000 0.000000 -1.000000
v -0.500000 0.000000 -0.500000
v 0.000000 0.000000 -0.500000
v 0.500000 0.000000 -0.500000
v 0.500000 0.000000 0.000000
v 0.000000 0.000000 0.000000
v -0.500000 0.000000 0.000000
v -1.000000 2.000000 -1.000000
v -1.000000 2.000000 0.000000
v -1.000000 2.000000 -0.500000
v 1.000000 2.000000 -1.000000
v 1.000000 2.000000 0.000000
v 1.000000 2.000000 -0.500000
v 0.500000 2.000000 0.000000
v 0.000000 2.000000 0.000000
v -0.500000 2.000000 0.000000
v -0.500000 2.000000 -0.500000
v 0.000000 2.000000 -0.500000
v 0.500000 2.000000 -0.500000
v -0.500000 2.000000 -1.000000
v 0.000000 2.000000 -1.000000
v 0.500000 2.000000 -1.000000
v -1.500000 0.000000 -1.000000
v -1.500000 2.000000 -1.000000
v -1.500000 0.478257 -1.161801
v -1.500000 1.000000 -1.234314
v -1.500000 1.521743 -1.161801
v -1.000000 0.000000 -1.500000
v -1.000000 2.000000 -1.500000
v -1.161801 0.478257 -1.500000
v -1.234314 1.000000 -1.500000
v -1.161801 1.521743 -1.500000
v -0.500000 2.000000 -1.500000
v -1.000000 2.000000 -1.500000
v 0.000000 2.000000 -1.500000
v 0.500000 2.000000 -1.500000
v 1.000000 2.000000 -1.500000
v -1.500000 2.000000 0.000000
v -1.500000 2.000000 -0.500000
v -1.500000 2.000000 -1.000000
v -1.500000 0.000000 0.000000
v -1.500000 0.000000 -1.000000
v -1.500000 0.000000 -0.500000
v -0.500000 0.000000 -1.500000
v -1.000000 0.000000 -1.500000
v 0.000000 0.000000 -1.500000
v 0.500000 0.000000 -1.500000
v 1.000000 0.000000 -1.500000
v 1.000000 0.000000 2.400000
v -1.000000 0.000000 2.400000
v 1.000000 2.000000 2.400000
v -1.000000 2.000000 2.400000
v -1.161801 0.478257 2.400000
v -1.234314 1.000000 2.400000
v -1.161801 1.521743 2.400000
v 1.161801 1.521743 2.400000
v 1.234314 1.000000 2.400000
v 1.161801 0.478257 2.400000
v 0.500000 0.000000 2.400000
v 0.000000 0.000000 2.400000
v -0.500000 0.000000 2.400000
v -0.500000 2.000000 2.400000
v 0.000000 2.000000 2.400000
v 0.500000 2.000000 2.400000
v -0.500000 0.000000 2.500000
v -1.000000 0.000000 2.500000
v 1.161801 0.478257 2.500000
v 1.000000 0.000000 2.500000
v -1.161801 1.521743 2.500000
v -1.000000 2.000000 2.500000
v 0.500000 2.000000 2.500000
v 1.000000 2.000000 2.500000
v -1.161801 0.478257 2.500000
v -1.234314 1.000000 2.500000
v 1.161801 1.521743 2.500000
v 1.234314 1.000000 2.500000
v 0.500000 0.000000 2.500000
v -0.500000 2.000000 2.500000
v -1.000000 0.000000 2.000000
v 1.000000 0.000000 2.000000
v -1.000000 2.000000 2.000000
v 1.000000 2.000000 2.000000
v -1.161801 0.478257 2.000000
v -1.234314 1.000000 2.000000
v -1.161801 1.521743 2.000000
v 1.161801 0.478257 2.000000
v 1.234314 1.000000 2.000000
v 1.161801 1.521743 2.000000
v -0.500000 0.000000 2.000000
v 0.000000 0.000000 2.000000
v 0.500000 0.000000 2.000000
v -0.500000 2.000000 2.000000
v 0.000000 2.000000 2.000000
v 0.500000 2.000000 2.000000
v -2.400000 0.000000 1.000000
v -2.400000 2.000000 1.000000
v -2.400000 1.521743 1.161801
v -2.400000 1.000000 1.234314
v -2.400000 0.478257 1.161801
v -2.400000 0.000000 0.500000
v -2.400000 2.000000 0.500000
v -2.500000 0.478257 1.161801
v -2.500000 0.000000 1.000000
v -2.500000 2.000000 0.500000
v -2.500000 2.000000 1.000000
v -2.500000 1.521743 1.161801
v -2.500000 1.000000 1.234314
v -2.500000 0.000000 0.500000
v -2.000000 0.000000 1.000000
v -2.000000 2.000000 1.000000
v -2.000000 0.478257 1.161801
v -2.000000 1.000000 1.234314
v -2.000000 1.521743 1.161801
v -2.000000 0.000000 0.500000
v -2.000000 2.000000 0.500000
v -1.000000 0.000000 1.000000
v -1.000000 0.000000 0.500000
v 1.000000 0.000000 1.000000
v 1.000000 0.000000 0.500000
v 0.500000 0.000000 1.000000
v 0.000000 0.000000 1.000000
v -0.500000 0.000000 1.000000
v -0.500000 0.000000 0.500000
v 0.000000 0.000000 0.500000
v 0.500000 0.000000 0.500000
v -1.000000 2.000000 1.000000
v -1.000000 2.000000 0.500000
v 1.000000 2.000000 1.000000
v 1.000000 2.000000 0.500000
v -0.500000 2.000000 0.500000
v 0.000000 2.000000 0.500000
v 0.500000 2.000000 0.500000
v -0.500000 2.000000 1.000000
v 0.000000 2.000000 1.000000
v 0.500000 2.000000 1.000000
v -1.500000 0.000000 1.000000
v -1.500000 2.000000 1.000000
v -1.500000 0.478257 1.161801
v -1.500000 1.000000 1.234314
v -1.500000 1.521743 1.161801
v -1.000000 0.000000 1.500000
v -1.000000 2.000000 1.500000
v -1.161801 0.478257 1.500000
v -1.234314 1.000000 1.500000
v -1.161801 1.521743 1.500000
v -0.500000 2.000000 1.500000
v -1.000000 2.000000 1.500000
v 0.000000 2.000000 1.500000
v 0.500000 2.000000 1.500000
v 1.000000 2.000000 1.500000
v -1.500000 2.000000 0.500000
v -1.500000 2.000000 1.000000
v -1.500000 0.000000 1.000000
v -1.500000 0.000000 0.500000
v -0.500000 0.000000 1.500000
v -1.000000 0.000000 1.500000
v 0.000000 0.000000 1.500000
v 0.500000 0.000000 1.500000
v 1.000000 0.000000 1.500000
vn -0.0000 1.0000 -0.0000
vn 0.9473 -0.3205 -0.0000
vn 0.9473 0.3205 -0.0000
vn 0.9905 0.1377 -0.0000
vn 0.9905 -0.1377 -0.0000
vn -0.0000 -1.0000 -0.0000
vn -0.9905 0.1377 -0.0000
vn -0.9473 0.3205 -0.0000
vn -0.0000 -0.0000 -1.0000
vn 1.0000 -0.0000 -0.0000
vn -1.0000 -0.0000 -0.0000
vn -0.9473 -0.3205 -0.0000
vn -0.9905 -0.1377 -0.0000
vn -0.0000 -0.0000 1.0000
vn -0.0000 -0.3205 -0.9473
vn -0.0000 0.3205 -0.9473
vn -0.0000 0.1377 -0.9905
vn -0.0000 -0.1377 -0.9905
vn -0.0000 -0.1377 0.9905
vn -0.0000 0.1377 0.9905
vn -0.0000 0.3205 0.9473
vn -0.0000 -0.3205 0.9473
vn 0.6877 0.2327 0.6877
vn 0.7037 0.0978 0.7037
vn 0.7037 -0.0978 0.7037
vn 0.6877 -0.2327 0.6877
vn 0.6877 0.2327 -0.6877
vn 0.7037 0.0978 -0.7037
vn 0.7037 -0.0978 -0.7037
vn 0.6877 -0.2327 -0.6877
vt 0.550000 0.916667
vt 0.600000 0.916667
vt 0.600000 1.000000
vt 0.550000 1.000000
vt 0.400000 0.916667
vt 0.400000 1.000000
vt 0.400000 1.000000
vt 0.400000 0.916667
vt 0.400000 1.000000
vt 0.400000 0.916667
vt 0.400000 1.000000
vt 0.400000 0.916667
vt 0.450000 0.916667
vt 0.450000 1.000000
vt 0.500000 0.916667
vt 0.500000 1.000000
vt 0.450000 1.000000
vt 0.600000 1.000000
vt 0.000000 0.000000
vt 0.550000 0.916667
vt 0.500000 0.916667
vt 0.450000 0.916667
vt 0.600000 0.916667
vt 0.525000 0.916667
vt 0.550000 0.916667
vt 0.575000 0.916667
vt 0.550000 0.916667
vt 0.525000 0.916667
vt 0.575000 0.916667
s 0
f 43/1/1 32/2/1 1/3/1 11/4/1
f 37/5/2 7/6/2 4/7/2 33/8/2
f 31/8/3 2/7/3 5/9/3 35/10/3
f 35/10/4 5/9/4 6/11/4 36/12/4
f 36/12/5 6/11/5 7/6/5 37/5/5
f 31/8/1 41/13/1 13/14/1 2/7/1
f 41/13/1 42/15/1 12/16/1 13/14/1
f 42/15/1 43/1/1 11/4/1 12/16/1
f 3/3/1 24/3/1 23/4/1 16/4/1
f 11/4/6 29/4/6 20/3/6 1/3/6
f 7/6/7 21/6/7 26/11/7 6/11/7
f 4/7/8 22/7/8 21/6/8 7/6/8
f 17/14/9 18/7/9 22/7/9 30/17/9
f 23/4/9 24/3/9 20/3/9 29/4/9
f 21/6/9 22/7/9 18/7/9 25/9/9 26/11/9
f 19/3/9 20/3/9 24/3/9 27/3/9 28/18/9
f 13/19/10 17/19/10 30/19/10 14/19/10
f 14/17/1 30/17/1 22/7/1 4/7/1
f 16/19/11 23/19/11 29/19/11 11/19/11
f 1/3/2 20/3/2 19/3/2 10/3/2
f 8/3/3 27/3/3 24/3/3 3/3/3
f 9/18/4 28/18/4 27/3/4 8/3/4
f 5/9/12 25/9/12 18/7/12 2/7/12
f 10/3/5 19/3/5 28/18/5 9/18/5
f 2/7/6 18/7/6 17/14/6 13/14/6
f 6/11/13 26/11/13 25/9/13 5/9/13
f 13/19/1 11/4/1 29/4/1 17/19/1
f 16/4/6 14/19/6 30/19/6 23/4/6
f 9/19/14 8/19/14 3/19/14 16/19/14 11/19/14 1/19/14 10/19/14
f 14/19/14 4/19/14 7/19/14 6/19/14 5/19/14 2/19/14 13/19/14
f 15/16/6 16/4/6 46/20/6 45/21/6
f 14/17/6 15/16/6 45/21/6 44/22/6
f 4/7/6 14/17/6 44/22/6 33/8/6
f 9/18/13 39/23/13 40/2/13 8/3/13
f 10/3/7 38/2/7 39/23/7 9/18/7
f 1/3/8 32/2/8 38/2/8 10/3/8
f 16/4/6 3/3/6 34/2/6 46/20/6
f 8/3/12 40/2/12 34/2/12 3/3/12
f 69/1/1 63/2/1 47/3/1 52/4/1
f 68/15/1 69/1/1 52/4/1 53/16/1
f 48/3/1 59/3/1 58/4/1 55/4/1
f 52/4/6 62/4/6 57/3/6 47/3/6
f 58/4/11 59/3/11 57/3/11 62/4/11
f 56/3/11 57/3/11 59/3/11 60/3/11 61/18/11
f 55/19/14 58/19/14 62/19/14 52/19/14
f 47/3/15 57/3/15 56/3/15 51/3/15
f 49/3/16 60/3/16 59/3/16 48/3/16
f 50/18/17 61/18/17 60/3/17 49/3/17
f 51/3/18 56/3/18 61/18/18 50/18/18
f 50/19/10 49/19/10 48/19/10 55/19/10 52/19/10 47/19/10 51/19/10
f 54/16/6 55/4/6 71/20/6 70/21/6
f 50/18/19 66/23/19 67/2/19 49/3/19
f 51/3/20 65/2/20 66/23/20 50/18/20
f 47/3/21 63/2/21 65/2/21 51/3/21
f 55/4/6 48/3/6 64/2/6 71/20/6
f 49/3/22 67/2/22 64/2/22 48/3/22
f 121/2/1 122/1/1 74/1/1 72/2/1
f 122/1/1 120/15/1 73/15/1 74/1/1
f 78/2/1 83/1/1 77/1/1 75/2/1
f 83/1/1 84/15/1 76/15/1 77/1/1
f 74/1/1 73/15/1 86/15/1 81/1/1
f 81/1/1 86/15/1 85/15/1 82/1/1
f 82/1/1 85/15/1 84/15/1 83/1/1
f 72/2/1 74/1/1 81/1/1 80/2/1
f 80/2/1 81/1/1 82/1/1 79/2/1
f 79/2/1 82/1/1 83/1/1 78/2/1
f 124/15/1 72/2/1 80/2/1 123/24/1
f 123/24/1 80/2/1 79/2/1 125/25/1
f 125/25/1 79/2/1 78/2/1 126/26/1
f 126/26/1 78/2/1 75/2/1 127/2/1
f 117/21/6 118/20/6 89/20/6 88/21/6
f 118/20/6 119/2/6 87/2/6 89/20/6
f 93/21/6 98/27/6 92/20/6 91/21/6
f 98/27/6 101/2/6 90/2/6 92/20/6
f 89/20/6 87/2/6 99/2/6 96/20/6
f 96/20/6 99/2/6 100/2/6 97/27/6
f 97/27/6 100/2/6 101/2/6 98/27/6
f 88/21/6 89/20/6 96/20/6 95/21/6
f 95/21/6 96/20/6 97/27/6 94/21/6
f 94/21/6 97/27/6 98/27/6 93/21/6
f 112/28/6 99/2/6 87/2/6 113/15/6
f 114/25/6 100/2/6 99/2/6 112/28/6
f 115/29/6 101/2/6 100/2/6 114/25/6
f 116/2/6 90/2/6 101/2/6 115/29/6
f 64/2/22 67/2/22 106/2/22 103/2/22
f 65/2/21 63/2/21 102/2/21 104/2/21
f 67/2/19 66/23/19 105/23/19 106/2/19
f 66/23/20 65/2/20 104/2/20 105/23/20
f 37/5/2 33/8/2 108/8/2 111/5/2
f 31/8/3 35/10/3 109/10/3 107/8/3
f 36/12/5 37/5/5 111/5/5 110/12/5
f 35/10/4 36/12/4 110/12/4 109/10/4
f 104/2/23 102/2/23 107/8/23 109/10/23
f 105/23/24 104/2/24 109/10/24 110/12/24
f 106/2/25 105/23/25 110/12/25 111/5/25
f 103/2/26 106/2/26 111/5/26 108/8/26
f 34/2/6 116/2/6 115/29/6 46/20/6
f 46/20/6 115/29/6 114/25/6 45/21/6
f 45/21/6 114/25/6 112/28/6 44/22/6
f 44/22/6 112/28/6 113/15/6 33/8/6
f 71/20/6 64/2/6 119/2/6 118/20/6
f 70/21/6 71/20/6 118/20/6 117/21/6
f 69/1/1 68/15/1 120/15/1 122/1/1
f 63/2/1 69/1/1 122/1/1 121/2/1
f 43/1/1 126/26/1 127/2/1 32/2/1
f 42/15/1 125/25/1 126/26/1 43/1/1
f 41/13/1 123/24/1 125/25/1 42/15/1
f 31/8/1 124/15/1 123/24/1 41/13/1
f 124/15/1 107/8/1 102/2/1 121/2/1 72/2/1
f 119/2/6 103/2/6 108/8/6 113/15/6 87/2/6
f 170/1/1 138/4/1 128/3/1 159/2/1
f 164/5/2 160/8/2 131/7/2 134/6/2
f 158/8/3 162/10/3 132/9/3 129/7/3
f 162/10/4 163/12/4 133/11/4 132/9/4
f 163/12/5 164/5/5 134/6/5 133/11/5
f 158/8/1 129/7/1 140/14/1 168/13/1
f 168/13/1 140/14/1 139/16/1 169/15/1
f 169/15/1 139/16/1 138/4/1 170/1/1
f 130/3/1 143/4/1 150/4/1 151/3/1
f 138/4/6 128/3/6 147/3/6 156/4/6
f 134/6/7 133/11/7 153/11/7 148/6/7
f 131/7/8 134/6/8 148/6/8 149/7/8
f 144/14/14 157/17/14 149/7/14 145/7/14
f 150/4/14 156/4/14 147/3/14 151/3/14
f 148/6/14 153/11/14 152/9/14 145/7/14 149/7/14
f 146/3/14 155/18/14 154/3/14 151/3/14 147/3/14
f 140/19/10 141/19/10 157/19/10 144/19/10
f 141/17/1 131/7/1 149/7/1 157/17/1
f 143/19/11 138/19/11 156/19/11 150/19/11
f 128/3/2 137/3/2 146/3/2 147/3/2
f 135/3/3 130/3/3 151/3/3 154/3/3
f 136/18/4 135/3/4 154/3/4 155/18/4
f 132/9/12 129/7/12 145/7/12 152/9/12
f 137/3/5 136/18/5 155/18/5 146/3/5
f 129/7/6 140/14/6 144/14/6 145/7/6
f 133/11/13 132/9/13 152/9/13 153/11/13
f 140/19/1 144/19/1 156/4/1 138/4/1
f 143/4/6 150/4/6 157/19/6 141/19/6
f 136/19/9 137/19/9 128/19/9 138/19/9 143/19/9 130/19/9 135/19/9
f 141/19/9 140/19/9 129/19/9 132/19/9 133/19/9 134/19/9 131/19/9
f 142/16/6 172/21/6 173/20/6 143/4/6
f 141/17/6 171/22/6 172/21/6 142/16/6
f 131/7/6 160/8/6 171/22/6 141/17/6
f 136/18/13 135/3/13 167/2/13 166/23/13
f 137/3/7 136/18/7 166/23/7 165/2/7
f 128/3/8 137/3/8 165/2/8 159/2/8
f 143/4/6 173/20/6 161/2/6 130/3/6
f 135/3/12 130/3/12 161/2/12 167/2/12
f 193/1/1 179/4/1 174/3/1 188/2/1
f 68/15/1 53/16/1 179/4/1 193/1/1
f 175/3/1 180/4/1 183/4/1 184/3/1
f 179/4/6 174/3/6 182/3/6 187/4/6
f 183/4/11 187/4/11 182/3/11 184/3/11
f 181/3/11 186/18/11 185/3/11 184/3/11 182/3/11
f 180/19/9 179/19/9 187/19/9 183/19/9
f 174/3/22 178/3/22 181/3/22 182/3/22
f 176/3/21 175/3/21 184/3/21 185/3/21
f 177/18/20 176/3/20 185/3/20 186/18/20
f 178/3/19 177/18/19 186/18/19 181/3/19
f 177/19/10 178/19/10 174/19/10 179/19/10 180/19/10 175/19/10 176/19/10
f 54/16/6 70/21/6 194/20/6 180/4/6
f 177/18/18 176/3/18 192/2/18 191/23/18
f 178/3/17 177/18/17 191/23/17 190/2/17
f 174/3/16 178/3/16 190/2/16 188/2/16
f 180/4/6 194/20/6 189/2/6 175/3/6
f 176/3/15 175/3/15 189/2/15 192/2/15
f 232/2/1 195/2/1 196/1/1 233/1/1
f 233/1/1 196/1/1 73/15/1 120/15/1
f 199/2/1 197/2/1 198/1/1 204/1/1
f 204/1/1 198/1/1 76/15/1 84/15/1
f 196/1/1 202/1/1 86/15/1 73/15/1
f 202/1/1 203/1/1 85/15/1 86/15/1
f 203/1/1 204/1/1 84/15/1 85/15/1
f 195/2/1 201/2/1 202/1/1 196/1/1
f 201/2/1 200/2/1 203/1/1 202/1/1
f 200/2/1 199/2/1 204/1/1 203/1/1
f 235/15/1 234/24/1 201/2/1 195/2/1
f 234/24/1 236/25/1 200/2/1 201/2/1
f 236/25/1 237/26/1 199/2/1 200/2/1
f 237/26/1 238/2/1 197/2/1 199/2/1
f 117/21/6 88/21/6 206/20/6 230/20/6
f 230/20/6 206/20/6 205/2/6 231/2/6
f 93/21/6 91/21/6 208/20/6 211/27/6
f 211/27/6 208/20/6 207/2/6 214/2/6
f 206/20/6 209/20/6 212/2/6 205/2/6
f 209/20/6 210/27/6 213/2/6 212/2/6
f 210/27/6 211/27/6 214/2/6 213/2/6
f 88/21/6 95/21/6 209/20/6 206/20/6
f 95/21/6 94/21/6 210/27/6 209/20/6
f 94/21/6 93/21/6 211/27/6 210/27/6
f 225/28/6 226/15/6 205/2/6 212/2/6
f 227/25/6 225/28/6 212/2/6 213/2/6
f 228/29/6 227/25/6 213/2/6 214/2/6
f 229/2/6 228/29/6 214/2/6 207/2/6
f 189/2/15 216/2/15 219/2/15 192/2/15
f 190/2/16 217/2/16 215/2/16 188/2/16
f 192/2/18 219/2/18 218/23/18 191/23/18
f 191/23/17 218/23/17 217/2/17 190/2/17
f 164/5/2 224/5/2 221/8/2 160/8/2
f 158/8/3 220/8/3 222/10/3 162/10/3
f 163/12/5 223/12/5 224/5/5 164/5/5
f 162/10/4 222/10/4 223/12/4 163/12/4
f 217/2/27 222/10/27 220/8/27 215/2/27
f 218/23/28 223/12/28 222/10/28 217/2/28
f 219/2/29 224/5/29 223/12/29 218/23/29
f 216/2/30 221/8/30 224/5/30 219/2/30
f 161/2/6 173/20/6 228/29/6 229/2/6
f 173/20/6 172/21/6 227/25/6 228/29/6
f 172/21/6 171/22/6 225/28/6 227/25/6
f 171/22/6 160/8/6 226/15/6 225/28/6
f 194/20/6 230/20/6 231/2/6 189/2/6
f 70/21/6 117/21/6 230/20/6 194/20/6
f 193/1/1 233/1/1 120/15/1 68/15/1
f 188/2/1 232/2/1 233/1/1 193/1/1
f 170/1/1 159/2/1 238/2/1 237/26/1
f 169/15/1 170/1/1 237/26/1 236/25/1
f 168/13/1 169/15/1 236/25/1 234/24/1
f 158/8/1 168/13/1 234/24/1 235/15/1
f 235/15/1 195/2/1 232/2/1 215/2/1 220/8/1
f 231/2/6 205/2/6 226/15/6 221/8/6 216/2/6
f 52/4/1 62/4/1 187/4/1 179/4/1
f 32/2/8 127/2/8 75/2/8 77/1/8 76/15/8 198/1/8 197/2/8 238/2/8 159/2/8 165/2/8 38/2/8
f 39/23/7 38/2/7 165/2/7 166/23/7
f 34/2/12 40/2/12 167/2/12 161/2/12 229/2/12 207/2/12 208/20/12 91/21/12 92/20/12 90/2/12 116/2/12
f 40/2/13 39/23/13 166/23/13 167/2/13
