# File produced by Open Asset Import Library (http://www.assimp.sf.net)
# (assimp v3.1.13472455)

mtllib L-Corridor.mtl

# vertex positions
v 0.500000 0.000000 -2.000000
v 1.000000 0.000000 -2.000000
v 1.000000 0.000000 -2.400000
v 0.500000 0.000000 -2.400000
v -1.161801 1.521743 -2.000000
v -1.161801 1.521743 -2.400000
v -1.000000 2.000000 -2.400000
v -1.000000 2.000000 -2.000000
v -1.000000 0.000000 -2.000000
v -1.000000 0.000000 -2.400000
v -1.161801 0.478257 -2.400000
v -1.161801 0.478257 -2.000000
v -1.234314 1.000000 -2.400000
v -1.234314 1.000000 -2.000000
v -0.500000 0.000000 -2.000000
v -0.500000 0.000000 -2.400000
v 0.000000 0.000000 -2.000000
v 0.000000 0.000000 -2.400000
v 1.000000 2.000000 -2.400000
v 1.000000 2.000000 -2.500000
v 0.500000 2.000000 -2.500000
v 0.500000 2.000000 -2.400000
v 0.500000 0.000000 -2.500000
v 1.000000 0.000000 -2.500000
v -1.161801 1.521743 -2.500000
v -1.234314 1.000000 -2.500000
v -1.000000 2.000000 -2.500000
v -0.500000 0.000000 -2.500000
v -1.000000 0.000000 -2.500000
v -0.500000 2.000000 -2.500000
v -1.161801 0.478257 -2.500000
v 1.161801 0.478257 -2.500000
v 1.161801 1.521743 -2.500000
v 1.234314 1.000000 -2.500000
v -0.500000 2.000000 -2.400000
v 1.161801 0.478257 -2.400000
v 1.161801 1.521743 -2.400000
v 1.234314 1.000000 -2.400000
v 0.000000 2.000000 -2.400000
v 0.500000 2.000000 -2.000000
v 0.000000 2.000000 -2.000000
v -0.500000 2.000000 -2.000000
v 1.234314 1.000000 -2.000000
v 1.161801 1.521743 -2.000000
v 1.161801 0.478257 -2.000000
v 1.000000 2.000000 -2.000000
v -2.000000 0.000000 -0.500000
v -2.000000 0.000000 -1.000000
v -2.400000 0.000000 -1.000000
v -2.400000 0.000000 -0.500000
v -2.000000 1.521743 1.161801
v -2.400000 1.521743 1.161801
v -2.400000 2.000000 1.000000
v -2.000000 2.000000 1.000000
v -2.000000 0.000000 1.000000
v -2.400000 0.000000 1.000000
v -2.400000 0.478257 1.161801
v -2.000000 0.478257 1.161801
v -2.400000 1.000000 1.234315
v -2.000000 1.000000 1.234315
v -2.000000 0.000000 0.500000
v -2.400000 0.000000 0.500000
v -2.000000 0.000000 0.000000
v -2.400000 0.000000 0.000000
v -2.400000 2.000000 -1.000000
v -2.500000 2.000000 -1.000000
v -2.500000 2.000000 -0.500000
v -2.400000 2.000000 -0.500000
v -2.500000 0.000000 -0.500000
v -2.500000 0.000000 -1.000000
v -2.500000 1.521743 1.161801
v -2.500000 1.000000 1.234315
v -2.500000 2.000000 1.000000
v -2.500000 0.000000 0.500000
v -2.500000 0.000000 1.000000
v -2.500000 2.000000 0.500000
v -2.500000 0.478257 1.161801
v -2.500000 0.478257 -1.161801
v -2.500000 1.521743 -1.161801
v -2.500000 1.000000 -1.234314
v -2.400000 2.000000 0.500000
v -2.400000 0.478257 -1.161801
v -2.400000 1.521743 -1.161801
v -2.400000 1.000000 -1.234314
v -2.400000 2.000000 0.000000
v -2.000000 2.000000 -0.500000
v -2.000000 2.000000 0.000000
v -2.000000 2.000000 0.500000
v -2.000000 1.000000 -1.234314
v -2.000000 1.521743 -1.161801
v -2.000000 0.478257 -1.161801
v -2.000000 2.000000 -1.000000
v -1.500000 0.000000 0.000000
v -1.500000 0.000000 0.500000
v -1.000000 0.000000 0.500000
v -1.000000 0.000000 0.000000
v -1.500000 0.000000 -1.000000
v -1.500000 0.000000 -0.500000
v -1.000000 0.000000 -0.500000
v -1.000000 0.000000 -1.000000
v -1.500000 0.000000 1.000000
v -1.000000 0.000000 1.000000
v 0.500000 0.000000 -1.000000
v 0.500000 0.000000 -0.500000
v 1.000000 0.000000 -0.500000
v 1.000000 0.000000 -1.000000
v 0.500000 0.000000 0.000000
v 0.500000 0.000000 0.500000
v 1.000000 0.000000 0.500000
v 1.000000 0.000000 0.000000
v 0.500000 0.000000 1.000000
v 1.000000 0.000000 1.000000
v -0.500000 0.000000 0.000000
v -0.500000 0.000000 -0.500000
v 0.000000 0.000000 0.000000
v 0.000000 0.000000 -0.500000
v -0.500000 0.000000 1.000000
v -0.500000 0.000000 0.500000
v 0.000000 0.000000 1.000000
v 0.000000 0.000000 0.500000
v -0.500000 0.000000 -1.000000
v 0.000000 0.000000 -1.000000
v -1.000000 0.000000 -1.500000
v -0.500000 0.000000 -1.500000
v 0.000000 0.000000 -1.500000
v 0.500000 0.000000 -1.500000
v 1.000000 0.000000 -1.500000
v 1.000000 2.000000 1.000000
v 1.000000 1.521743 1.161801
v 1.000000 0.478257 1.161801
v 1.000000 1.000000 1.234315
v 1.161801 0.478257 1.000000
v 1.234314 1.000000 1.000000
v 1.161801 1.521743 1.000000
v -1.500000 2.000000 1.000000
v -1.500000 2.000000 0.500000
v -1.000000 2.000000 0.500000
v -1.000000 2.000000 1.000000
v -1.500000 2.000000 0.000000
v -1.500000 2.000000 -0.500000
v -1.000000 2.000000 -0.500000
v -1.000000 2.000000 0.000000
v -1.500000 2.000000 -1.000000
v -1.000000 2.000000 -1.000000
v 0.500000 2.000000 1.000000
v 0.500000 2.000000 0.500000
v 1.000000 2.000000 0.500000
v 0.500000 2.000000 0.000000
v 0.500000 2.000000 -0.500000
v 1.000000 2.000000 -0.500000
v 1.000000 2.000000 0.000000
v 0.500000 2.000000 -1.000000
v 1.000000 2.000000 -1.000000
v -0.500000 2.000000 0.000000
v -0.500000 2.000000 0.500000
v 0.000000 2.000000 0.000000
v 0.000000 2.000000 0.500000
v -0.500000 2.000000 -1.000000
v -0.500000 2.000000 -0.500000
v 0.000000 2.000000 -1.000000
v 0.000000 2.000000 -0.500000
v -0.500000 2.000000 1.000000
v 0.000000 2.000000 1.000000
v -0.500000 2.000000 -1.500000
v -1.000000 2.000000 -1.500000
v 0.000000 2.000000 -1.500000
v 0.500000 2.000000 -1.500000
v 1.000000 2.000000 -1.500000
v -1.500000 1.521743 -1.161801
v -1.500000 0.478257 -1.161801
v -1.500000 1.000000 -1.234314
v -1.161801 1.521743 -1.500000
v -1.161801 0.478257 -1.500000
v -1.234314 1.000000 -1.500000

# UV coordinates
vt 0.052298 0.774862
vt 0.052298 0.835447
vt 0.003830 0.835447
vt 0.003830 0.774862
vt 0.794638 0.188220
vt 0.843106 0.188220
vt 0.843106 0.246170
vt 0.794638 0.246170
vt 0.794638 0.003830
vt 0.843106 0.003830
vt 0.843106 0.061780
vt 0.794638 0.061780
vt 0.843106 0.125000
vt 0.794638 0.125000
vt 0.052298 0.593107
vt 0.052298 0.653692
vt 0.003830 0.653692
vt 0.003830 0.593107
vt 0.052298 0.714277
vt 0.003830 0.714277
vt 0.063160 0.843106
vt 0.075277 0.843106
vt 0.075277 0.903691
vt 0.063160 0.903691
vt 0.082936 0.843106
vt 0.095053 0.843106
vt 0.095053 0.903691
vt 0.082936 0.903691
vt 0.918412 0.938220
vt 0.906295 0.938220
vt 0.906295 0.875000
vt 0.918412 0.875000
vt 0.918412 0.996170
vt 0.906295 0.996170
vt 0.886818 0.253830
vt 0.947403 0.253830
vt 0.947403 0.496170
vt 0.886818 0.496170
vt 0.939743 0.246170
vt 0.879158 0.246170
vt 0.879158 0.003830
vt 0.939743 0.003830
vt 0.967008 0.438220
vt 0.967008 0.311780
vt 0.975795 0.375000
vt 0.859553 0.061780
vt 0.859553 0.188220
vt 0.850766 0.125000
vt 0.983155 0.503830
vt 0.995272 0.503830
vt 0.995272 0.746170
vt 0.983155 0.746170
vt 0.122489 0.843106
vt 0.134607 0.843106
vt 0.134607 0.903691
vt 0.122489 0.903691
vt 0.995571 0.496170
vt 0.983454 0.496170
vt 0.983454 0.253830
vt 0.995571 0.253830
vt 0.967180 0.003830
vt 0.979296 0.003830
vt 0.979296 0.061780
vt 0.967180 0.061780
vt 0.967179 0.188220
vt 0.979296 0.188220
vt 0.979296 0.246170
vt 0.967179 0.246170
vt 0.967180 0.125000
vt 0.979296 0.125000
vt 0.918412 0.811780
vt 0.906295 0.811780
vt 0.906295 0.753830
vt 0.918412 0.753830
vt 0.043383 0.843106
vt 0.055500 0.843106
vt 0.055500 0.903691
vt 0.043383 0.903691
vt 0.003830 0.964277
vt 0.003830 0.843106
vt 0.015947 0.843106
vt 0.015947 0.964277
vt 0.023606 0.964277
vt 0.023606 0.843106
vt 0.035723 0.843106
vt 0.035723 0.964277
vt 0.762445 0.875000
vt 0.753659 0.938220
vt 0.734053 0.996170
vt 0.673468 0.996170
vt 0.673468 0.753830
vt 0.734053 0.753830
vt 0.753659 0.811780
vt 0.879158 0.496170
vt 0.818573 0.496170
vt 0.798967 0.438220
vt 0.790181 0.375000
vt 0.798967 0.311780
vt 0.818573 0.253830
vt 0.879158 0.253830
vt 0.003830 0.125000
vt 0.003830 0.064415
vt 0.052298 0.064415
vt 0.052298 0.125000
vt 0.003830 0.185585
vt 0.052298 0.185585
vt 0.003830 0.246170
vt 0.052298 0.246170
vt 0.544638 0.444200
vt 0.544638 0.395732
vt 0.607858 0.395732
vt 0.607858 0.444200
vt 0.481419 0.444200
vt 0.481419 0.395732
vt 0.423468 0.444200
vt 0.423468 0.395732
vt 0.003830 0.003830
vt 0.052298 0.003830
vt 0.665808 0.395732
vt 0.665808 0.444200
vt 0.234053 0.471936
vt 0.173468 0.471936
vt 0.173468 0.423468
vt 0.234053 0.423468
vt 0.607858 0.500328
vt 0.607858 0.451860
vt 0.665808 0.451860
vt 0.665808 0.500328
vt 0.423468 0.500328
vt 0.423468 0.451860
vt 0.481419 0.451860
vt 0.481419 0.500328
vt 0.544638 0.451860
vt 0.544638 0.500328
vt 0.415808 0.471936
vt 0.355223 0.471936
vt 0.355223 0.423468
vt 0.415808 0.423468
vt 0.294638 0.471936
vt 0.294638 0.423468
vt 0.102713 0.843106
vt 0.114830 0.843106
vt 0.114830 0.903691
vt 0.102713 0.903691
vt 0.154383 0.903691
vt 0.142266 0.903691
vt 0.142266 0.843106
vt 0.154383 0.843106
vt 0.898635 0.938220
vt 0.886518 0.938220
vt 0.886518 0.875000
vt 0.898635 0.875000
vt 0.898635 0.996170
vt 0.886518 0.996170
vt 0.770105 0.753830
vt 0.830690 0.753830
vt 0.830690 0.996170
vt 0.770105 0.996170
vt 0.762445 0.746170
vt 0.701860 0.746170
vt 0.701860 0.503830
vt 0.762445 0.503830
vt 0.850295 0.938220
vt 0.850295 0.811780
vt 0.859082 0.875000
vt 0.682255 0.561780
vt 0.682255 0.688220
vt 0.673468 0.625000
vt 0.963378 0.503830
vt 0.975495 0.503830
vt 0.975495 0.746170
vt 0.963378 0.746170
vt 0.162043 0.843106
vt 0.174160 0.843106
vt 0.174160 0.903691
vt 0.162043 0.903691
vt 0.959520 0.246170
vt 0.947403 0.246170
vt 0.947403 0.003830
vt 0.959520 0.003830
vt 0.866742 0.753830
vt 0.878859 0.753830
vt 0.878859 0.811780
vt 0.866742 0.811780
vt 0.866741 0.938220
vt 0.878859 0.938220
vt 0.878859 0.996170
vt 0.866741 0.996170
vt 0.866742 0.875000
vt 0.878859 0.875000
vt 0.898635 0.811780
vt 0.886518 0.811780
vt 0.886518 0.753830
vt 0.898635 0.753830
vt 0.193937 0.903691
vt 0.181819 0.903691
vt 0.181819 0.843106
vt 0.193937 0.843106
vt 0.945848 0.875000
vt 0.945848 0.753830
vt 0.957965 0.753830
vt 0.957965 0.875000
vt 0.938188 0.753830
vt 0.938188 0.875000
vt 0.926071 0.875000
vt 0.926071 0.753830
vt 0.955718 0.625000
vt 0.946932 0.688220
vt 0.927327 0.746170
vt 0.866741 0.746170
vt 0.866741 0.503830
vt 0.927327 0.503830
vt 0.946932 0.561780
vt 0.859082 0.746170
vt 0.798497 0.746170
vt 0.778891 0.688220
vt 0.770105 0.625000
vt 0.778891 0.561780
vt 0.798497 0.503830
vt 0.859082 0.503830
vt 0.294638 0.415808
vt 0.234053 0.415808
vt 0.234053 0.367340
vt 0.294638 0.367340
vt 0.355223 0.415808
vt 0.355223 0.367340
vt 0.415808 0.415808
vt 0.415808 0.367340
vt 0.673468 0.375000
vt 0.721936 0.375000
vt 0.721936 0.438220
vt 0.673468 0.438220
vt 0.673468 0.311780
vt 0.721936 0.311780
vt 0.673468 0.253830
vt 0.721936 0.253830
vt 0.173468 0.415808
vt 0.173468 0.367340
vt 0.721936 0.496170
vt 0.673468 0.496170
vt 0.294638 0.532521
vt 0.355223 0.532521
vt 0.355223 0.593107
vt 0.294638 0.593107
vt 0.173468 0.532521
vt 0.234053 0.532521
vt 0.234053 0.593107
vt 0.173468 0.593107
vt 0.415808 0.532521
vt 0.415808 0.593107
vt 0.173468 0.774862
vt 0.234053 0.774862
vt 0.234053 0.835447
vt 0.173468 0.835447
vt 0.294638 0.774862
vt 0.355223 0.774862
vt 0.355223 0.835447
vt 0.294638 0.835447
vt 0.415808 0.774862
vt 0.415808 0.835447
vt 0.294638 0.653692
vt 0.234053 0.653692
vt 0.294638 0.714277
vt 0.234053 0.714277
vt 0.415808 0.653692
vt 0.355223 0.653692
vt 0.415808 0.714277
vt 0.355223 0.714277
vt 0.173468 0.653692
vt 0.173468 0.714277
vt 0.112883 0.593107
vt 0.112883 0.653692
vt 0.112883 0.714277
vt 0.112883 0.774862
vt 0.112883 0.835447
vt 0.665808 0.863839
vt 0.607858 0.863839
vt 0.481419 0.863839
vt 0.423468 0.863839
vt 0.544638 0.863839
vt 0.481419 0.032222
vt 0.544638 0.032222
vt 0.607858 0.032222
vt 0.665808 0.032222
vt 0.423468 0.032222
vt 0.228861 0.843106
vt 0.544638 0.003830
vt 0.481419 0.012616
vt 0.607858 0.012616
vt 0.201596 0.862712
vt 0.221202 0.862712
vt 0.221202 0.843106
vt 0.415808 0.306755
vt 0.355223 0.306755
vt 0.355223 0.246170
vt 0.415808 0.246170
vt 0.294638 0.306755
vt 0.234053 0.306755
vt 0.234053 0.246170
vt 0.294638 0.246170
vt 0.173468 0.306755
vt 0.173468 0.246170
vt 0.415808 0.064415
vt 0.355223 0.064415
vt 0.355223 0.003830
vt 0.415808 0.003830
vt 0.294638 0.064415
vt 0.234053 0.064415
vt 0.234053 0.003830
vt 0.294638 0.003830
vt 0.173468 0.064415
vt 0.173468 0.003830
vt 0.294638 0.185585
vt 0.355223 0.185585
vt 0.294638 0.125000
vt 0.355223 0.125000
vt 0.173468 0.185585
vt 0.234053 0.185585
vt 0.173468 0.125000
vt 0.234053 0.125000
vt 0.415808 0.185585
vt 0.415808 0.125000
vt 0.112883 0.185585
vt 0.112883 0.246170
vt 0.112883 0.125000
vt 0.112883 0.064415
vt 0.112883 0.003830
vt 0.782521 0.438220
vt 0.782521 0.496170
vt 0.782521 0.253830
vt 0.782521 0.311780
vt 0.782521 0.375000
vt 0.734053 0.246170
vt 0.734053 0.188220
vt 0.734053 0.061780
vt 0.734053 0.003830
vt 0.734053 0.125000
vt 0.693074 0.061780
vt 0.673468 0.003830
vt 0.701860 0.125000
vt 0.693074 0.188220
vt 0.673468 0.246170

# vertex normals
vn 0.000000 1.000000 0.000000
vn 0.947254 -0.320484 0.000000
vn 0.947254 0.320484 0.000000
vn 0.990475 0.137696 0.000000
vn 0.990475 -0.137696 0.000000
vn 0.000000 -1.000000 0.000000
vn -0.990475 0.137696 0.000000
vn -0.947254 0.320484 0.000000
vn 0.000000 0.000000 -1.000000
vn 1.000000 0.000000 0.000000
vn -1.000000 0.000000 0.000000
vn -0.947254 -0.320484 0.000000
vn -0.990475 -0.137696 0.000000
vn 0.000000 0.000000 1.000000
vn 0.000000 -0.320484 -0.947254
vn 0.000000 0.320484 -0.947254
vn 0.000000 0.137696 -0.990475
vn 0.000000 -0.137696 -0.990475
vn 0.000000 0.137696 0.990475
vn 0.000000 0.320484 0.947254
vn 0.000000 -0.320484 0.947254
vn 0.000000 -0.137696 0.990475
vn -0.703717 0.097802 -0.703717
vn -0.703717 -0.097802 -0.703717
vn -0.687696 -0.232699 -0.687696
vn -0.687696 0.232699 -0.687696
vn 0.687696 0.232699 0.687696
vn 0.703717 0.097802 0.703717
vn 0.703717 -0.097802 0.703717
vn 0.687696 -0.232699 0.687696

# Mesh
g Plane
usemtl None
f 4/4/1 1/1/1 2/2/1
f 2/2/1 3/3/1 4/4/1
f 8/8/2 5/5/2 6/6/2
f 6/6/2 7/7/2 8/8/2
f 12/12/3 9/9/3 10/10/3
f 10/10/3 11/11/3 12/12/3
f 14/14/4 12/12/4 11/11/4
f 11/11/4 13/13/4 14/14/4
f 5/5/5 14/14/5 13/13/5
f 13/13/5 6/6/5 5/5/5
f 10/18/1 9/15/1 15/16/1
f 15/16/1 16/17/1 10/18/1
f 16/17/1 15/16/1 17/19/1
f 17/19/1 18/20/1 16/17/1
f 18/20/1 17/19/1 1/1/1
f 1/1/1 4/4/1 18/20/1
f 22/24/1 19/21/1 20/22/1
f 20/22/1 21/23/1 22/24/1
f 3/28/6 4/25/6 23/26/6
f 23/26/6 24/27/6 3/28/6
f 13/32/7 6/29/7 25/30/7
f 25/30/7 26/31/7 13/32/7
f 6/29/8 7/33/8 27/34/8
f 27/34/8 25/30/8 6/29/8
f 30/38/9 28/35/9 29/36/9
f 29/36/9 27/37/9 30/38/9
f 23/42/9 21/39/9 20/40/9
f 20/40/9 24/41/9 23/42/9
f 26/45/9 25/43/9 27/37/9
f 26/45/9 27/37/9 29/36/9
f 29/36/9 31/44/9 26/45/9
f 34/48/9 32/46/9 24/41/9
f 34/48/9 24/41/9 20/40/9
f 20/40/9 33/47/9 34/48/9
f 35/52/10 16/49/10 28/50/10
f 28/50/10 30/51/10 35/52/10
f 7/56/1 35/53/1 30/54/1
f 30/54/1 27/55/1 7/56/1
f 4/60/11 22/57/11 21/58/11
f 21/58/11 23/59/11 4/60/11
f 36/64/2 3/61/2 24/62/2
f 24/62/2 32/63/2 36/64/2
f 19/68/3 37/65/3 33/66/3
f 33/66/3 20/67/3 19/68/3
f 37/65/4 38/69/4 34/70/4
f 34/70/4 33/66/4 37/65/4
f 10/74/12 11/71/12 31/72/12
f 31/72/12 29/73/12 10/74/12
f 38/69/5 36/64/5 32/63/5
f 32/63/5 34/70/5 38/69/5
f 16/78/6 10/75/6 29/76/6
f 29/76/6 28/77/6 16/78/6
f 11/71/13 13/32/13 26/31/13
f 26/31/13 31/72/13 11/71/13
f 28/82/1 16/79/1 4/80/1
f 4/80/1 23/81/1 28/82/1
f 21/86/6 22/83/6 35/84/6
f 35/84/6 30/85/6 21/86/6
f 36/93/14 38/87/14 37/88/14
f 36/93/14 37/88/14 19/89/14
f 36/93/14 19/89/14 22/90/14
f 36/93/14 22/90/14 4/91/14
f 4/91/14 3/92/14 36/93/14
f 16/100/14 35/94/14 7/95/14
f 16/100/14 7/95/14 6/96/14
f 16/100/14 6/96/14 13/97/14
f 16/100/14 13/97/14 11/98/14
f 11/98/14 10/99/14 16/100/14
f 41/104/6 39/101/6 22/102/6
f 22/102/6 40/103/6 41/104/6
f 42/106/6 35/105/6 39/101/6
f 39/101/6 41/104/6 42/106/6
f 8/108/6 7/107/6 35/105/6
f 35/105/6 42/106/6 8/108/6
f 37/112/13 38/109/13 43/110/13
f 43/110/13 44/111/13 37/112/13
f 38/109/7 36/113/7 45/114/7
f 45/114/7 43/110/7 38/109/7
f 36/113/8 3/115/8 2/116/8
f 2/116/8 45/114/8 36/113/8
f 40/103/6 22/102/6 19/117/6
f 19/117/6 46/118/6 40/103/6
f 19/120/12 37/112/12 44/111/12
f 44/111/12 46/119/12 19/120/12
f 50/124/1 47/121/1 48/122/1
f 48/122/1 49/123/1 50/124/1
f 54/128/15 51/125/15 52/126/15
f 52/126/15 53/127/15 54/128/15
f 58/132/16 55/129/16 56/130/16
f 56/130/16 57/131/16 58/132/16
f 60/134/17 58/132/17 57/131/17
f 57/131/17 59/133/17 60/134/17
f 51/125/18 60/134/18 59/133/18
f 59/133/18 52/126/18 51/125/18
f 56/138/1 55/135/1 61/136/1
f 61/136/1 62/137/1 56/138/1
f 62/137/1 61/136/1 63/139/1
f 63/139/1 64/140/1 62/137/1
f 64/140/1 63/139/1 47/121/1
f 47/121/1 50/124/1 64/140/1
f 68/144/1 65/141/1 66/142/1
f 66/142/1 67/143/1 68/144/1
f 49/148/6 50/145/6 69/146/6
f 69/146/6 70/147/6 49/148/6
f 59/152/19 52/149/19 71/150/19
f 71/150/19 72/151/19 59/152/19
f 52/149/20 53/153/20 73/154/20
f 73/154/20 71/150/20 52/149/20
f 76/158/11 74/155/11 75/156/11
f 75/156/11 73/157/11 76/158/11
f 69/162/11 67/159/11 66/160/11
f 66/160/11 70/161/11 69/162/11
f 72/165/11 71/163/11 73/157/11
f 72/165/11 73/157/11 75/156/11
f 75/156/11 77/164/11 72/165/11
f 80/168/11 78/166/11 70/161/11
f 80/168/11 70/161/11 66/160/11
f 66/160/11 79/167/11 80/168/11
f 81/172/9 62/169/9 74/170/9
f 74/170/9 76/171/9 81/172/9
f 53/176/1 81/173/1 76/174/1
f 76/174/1 73/175/1 53/176/1
f 50/180/14 68/177/14 67/178/14
f 67/178/14 69/179/14 50/180/14
f 82/184/15 49/181/15 70/182/15
f 70/182/15 78/183/15 82/184/15
f 65/188/16 83/185/16 79/186/16
f 79/186/16 66/187/16 65/188/16
f 83/185/17 84/189/17 80/190/17
f 80/190/17 79/186/17 83/185/17
f 56/194/21 57/191/21 77/192/21
f 77/192/21 75/193/21 56/194/21
f 84/189/18 82/184/18 78/183/18
f 78/183/18 80/190/18 84/189/18
f 62/198/6 56/195/6 75/196/6
f 75/196/6 74/197/6 62/198/6
f 57/191/22 59/152/22 72/151/22
f 72/151/22 77/192/22 57/191/22
f 74/202/1 62/199/1 50/200/1
f 50/200/1 69/201/1 74/202/1
f 67/206/6 68/203/6 81/204/6
f 81/204/6 76/205/6 67/206/6
f 82/213/10 84/207/10 83/208/10
f 82/213/10 83/208/10 65/209/10
f 82/213/10 65/209/10 68/210/10
f 82/213/10 68/210/10 50/211/10
f 50/211/10 49/212/10 82/213/10
f 62/220/10 81/214/10 53/215/10
f 62/220/10 53/215/10 52/216/10
f 62/220/10 52/216/10 59/217/10
f 62/220/10 59/217/10 57/218/10
f 57/218/10 56/219/10 62/220/10
f 87/224/6 85/221/6 68/222/6
f 68/222/6 86/223/6 87/224/6
f 88/226/6 81/225/6 85/221/6
f 85/221/6 87/224/6 88/226/6
f 54/228/6 53/227/6 81/225/6
f 81/225/6 88/226/6 54/228/6
f 83/232/22 84/229/22 89/230/22
f 89/230/22 90/231/22 83/232/22
f 84/229/19 82/233/19 91/234/19
f 91/234/19 89/230/19 84/229/19
f 82/233/20 49/235/20 48/236/20
f 48/236/20 91/234/20 82/233/20
f 86/223/6 68/222/6 65/237/6
f 65/237/6 92/238/6 86/223/6
f 65/240/21 83/232/21 90/231/21
f 90/231/21 92/239/21 65/240/21
f 96/244/1 93/241/1 94/242/1
f 94/242/1 95/243/1 96/244/1
f 100/248/1 97/245/1 98/246/1
f 98/246/1 99/247/1 100/248/1
f 95/243/1 94/242/1 101/249/1
f 101/249/1 102/250/1 95/243/1
f 99/247/1 98/246/1 93/241/1
f 93/241/1 96/244/1 99/247/1
f 106/254/1 103/251/1 104/252/1
f 104/252/1 105/253/1 106/254/1
f 110/258/1 107/255/1 108/256/1
f 108/256/1 109/257/1 110/258/1
f 109/257/1 108/256/1 111/259/1
f 111/259/1 112/260/1 109/257/1
f 105/253/1 104/252/1 107/255/1
f 107/255/1 110/258/1 105/253/1
f 114/262/1 99/247/1 96/244/1
f 96/244/1 113/261/1 114/262/1
f 116/264/1 114/262/1 113/261/1
f 113/261/1 115/263/1 116/264/1
f 104/252/1 116/264/1 115/263/1
f 115/263/1 107/255/1 104/252/1
f 118/266/1 95/243/1 102/250/1
f 102/250/1 117/265/1 118/266/1
f 120/268/1 118/266/1 117/265/1
f 117/265/1 119/267/1 120/268/1
f 108/256/1 120/268/1 119/267/1
f 119/267/1 111/259/1 108/256/1
f 113/261/1 96/244/1 95/243/1
f 95/243/1 118/266/1 113/261/1
f 115/263/1 113/261/1 118/266/1
f 118/266/1 120/268/1 115/263/1
f 107/255/1 115/263/1 120/268/1
f 120/268/1 108/256/1 107/255/1
f 121/269/1 100/248/1 99/247/1
f 99/247/1 114/262/1 121/269/1
f 122/270/1 121/269/1 114/262/1
f 114/262/1 116/264/1 122/270/1
f 103/251/1 122/270/1 116/264/1
f 116/264/1 104/252/1 103/251/1
f 124/272/1 123/271/1 100/248/1
f 100/248/1 121/269/1 124/272/1
f 125/273/1 124/272/1 121/269/1
f 121/269/1 122/270/1 125/273/1
f 126/274/1 125/273/1 122/270/1
f 122/270/1 103/251/1 126/274/1
f 127/275/1 126/274/1 103/251/1
f 103/251/1 106/254/1 127/275/1
f 129/277/15 51/125/15 54/128/15
f 54/128/15 128/276/15 129/277/15
f 112/279/16 55/129/16 58/132/16
f 58/132/16 130/278/16 112/279/16
f 131/280/18 60/134/18 51/125/18
f 51/125/18 129/277/18 131/280/18
f 130/278/17 58/132/17 60/134/17
f 60/134/17 131/280/17 130/278/17
f 133/282/7 43/110/7 45/114/7
f 45/114/7 132/281/7 133/282/7
f 128/284/12 46/119/12 44/111/12
f 44/111/12 134/283/12 128/284/12
f 132/281/8 45/114/8 2/116/8
f 2/116/8 112/285/8 132/281/8
f 134/283/13 44/111/13 43/110/13
f 43/110/13 133/282/13 134/283/13
f 112/286/14 130/286/14 132/286/14
f 130/288/23 131/287/23 133/282/23
f 133/282/23 132/281/23 130/288/23
f 131/287/24 129/289/24 134/283/24
f 134/283/24 133/282/24 131/287/24
f 129/290/9 128/291/9 134/292/9
f 134/283/25 129/289/25 128/284/25
f 130/288/26 132/281/26 112/285/26
f 138/296/6 135/293/6 136/294/6
f 136/294/6 137/295/6 138/296/6
f 142/300/6 139/297/6 140/298/6
f 140/298/6 141/299/6 142/300/6
f 137/295/6 136/294/6 139/297/6
f 139/297/6 142/300/6 137/295/6
f 141/299/6 140/298/6 143/301/6
f 143/301/6 144/302/6 141/299/6
f 128/306/6 145/303/6 146/304/6
f 146/304/6 147/305/6 128/306/6
f 151/310/6 148/307/6 149/308/6
f 149/308/6 150/309/6 151/310/6
f 150/309/6 149/308/6 152/311/6
f 152/311/6 153/312/6 150/309/6
f 147/305/6 146/304/6 148/307/6
f 148/307/6 151/310/6 147/305/6
f 155/314/6 137/295/6 142/300/6
f 142/300/6 154/313/6 155/314/6
f 157/316/6 155/314/6 154/313/6
f 154/313/6 156/315/6 157/316/6
f 146/304/6 157/316/6 156/315/6
f 156/315/6 148/307/6 146/304/6
f 159/318/6 141/299/6 144/302/6
f 144/302/6 158/317/6 159/318/6
f 161/320/6 159/318/6 158/317/6
f 158/317/6 160/319/6 161/320/6
f 149/308/6 161/320/6 160/319/6
f 160/319/6 152/311/6 149/308/6
f 154/313/6 142/300/6 141/299/6
f 141/299/6 159/318/6 154/313/6
f 156/315/6 154/313/6 159/318/6
f 159/318/6 161/320/6 156/315/6
f 148/307/6 156/315/6 161/320/6
f 161/320/6 149/308/6 148/307/6
f 162/321/6 138/296/6 137/295/6
f 137/295/6 155/314/6 162/321/6
f 163/322/6 162/321/6 155/314/6
f 155/314/6 157/316/6 163/322/6
f 145/303/6 163/322/6 157/316/6
f 157/316/6 146/304/6 145/303/6
f 165/324/6 164/323/6 158/317/6
f 158/317/6 144/302/6 165/324/6
f 164/323/6 166/325/6 160/319/6
f 160/319/6 158/317/6 164/323/6
f 166/325/6 167/326/6 152/311/6
f 152/311/6 160/319/6 166/325/6
f 167/326/6 168/327/6 153/312/6
f 153/312/6 152/311/6 167/326/6
f 143/329/21 92/239/21 90/231/21
f 90/231/21 169/328/21 143/329/21
f 170/331/20 91/234/20 48/236/20
f 48/236/20 97/330/20 170/331/20
f 169/328/22 90/231/22 89/230/22
f 89/230/22 171/332/22 169/328/22
f 171/332/19 89/230/19 91/234/19
f 91/234/19 170/331/19 171/332/19
f 172/334/2 5/5/2 8/8/2
f 8/8/2 165/333/2 172/334/2
f 123/336/3 9/9/3 12/12/3
f 12/12/3 173/335/3 123/336/3
f 174/337/5 14/14/5 5/5/5
f 5/5/5 172/334/5 174/337/5
f 173/335/4 12/12/4 14/14/4
f 14/14/4 174/337/4 173/335/4
f 173/335/27 170/338/27 97/339/27
f 97/339/27 123/336/27 173/335/27
f 174/337/28 171/340/28 170/338/28
f 170/338/28 173/335/28 174/337/28
f 172/334/29 169/341/29 171/340/29
f 171/340/29 174/337/29 172/334/29
f 165/333/30 143/342/30 169/341/30
f 169/341/30 172/334/30 165/333/30
f 40/103/6 46/118/6 168/327/6
f 168/327/6 167/326/6 40/103/6
f 41/104/6 40/103/6 167/326/6
f 167/326/6 166/325/6 41/104/6
f 42/106/6 41/104/6 166/325/6
f 166/325/6 164/323/6 42/106/6
f 8/108/6 42/106/6 164/323/6
f 164/323/6 165/324/6 8/108/6
f 140/298/6 86/223/6 92/238/6
f 92/238/6 143/301/6 140/298/6
f 136/294/6 88/226/6 87/224/6
f 87/224/6 139/297/6 136/294/6
f 139/297/6 87/224/6 86/223/6
f 86/223/6 140/298/6 139/297/6
f 135/293/6 54/228/6 88/226/6
f 88/226/6 136/294/6 135/293/6
f 98/246/1 47/121/1 63/139/1
f 63/139/1 93/241/1 98/246/1
f 94/242/1 61/136/1 55/135/1
f 55/135/1 101/249/1 94/242/1
f 97/245/1 48/122/1 47/121/1
f 47/121/1 98/246/1 97/245/1
f 93/241/1 63/139/1 61/136/1
f 61/136/1 94/242/1 93/241/1
f 2/2/1 1/1/1 126/274/1
f 126/274/1 127/275/1 2/2/1
f 1/1/1 17/19/1 125/273/1
f 125/273/1 126/274/1 1/1/1
f 17/19/1 15/16/1 124/272/1
f 124/272/1 125/273/1 17/19/1
f 15/16/1 9/15/1 123/271/1
f 123/271/1 124/272/1 15/16/1
f 123/271/1 97/245/1 100/248/1
f 143/301/6 165/324/6 144/302/6
