# File produced by Open Asset Import Library (http://www.assimp.sf.net)
# (assimp v3.1.13472455)

mtllib L-Corridor.mtl

# vertex positions
v 1.000000 0.000000 -2.000000
v 0.500000 0.000000 -2.400000
v 0.500000 0.000000 -2.000000
v -1.161801 1.521743 -2.400000
v -1.000000 2.000000 -2.000000
v -1.161801 1.521743 -2.000000
v -1.000000 0.000000 -2.400000
v -1.161801 0.478257 -2.000000
v -1.000000 0.000000 -2.000000
v -1.161801 0.478257 -2.400000
v -1.234314 1.000000 -2.000000
v -1.234314 1.000000 -2.400000
v -0.500000 0.000000 -2.000000
v 0.000000 0.000000 -2.000000
v -0.500000 0.000000 -2.400000
v 0.000000 0.000000 -2.400000
v 1.000000 2.000000 -2.500000
v 0.500000 2.000000 -2.400000
v 1.000000 2.000000 -2.400000
v 0.500000 0.000000 -2.500000
v 1.000000 0.000000 -2.400000
v -1.161801 1.521743 -2.500000
v -1.000000 2.000000 -2.500000
v -1.000000 2.000000 -2.400000
v -1.000000 0.000000 -2.500000
v -0.500000 2.000000 -2.500000
v -0.500000 0.000000 -2.500000
v 0.500000 2.000000 -2.500000
v -1.161801 0.478257 -2.500000
v 1.000000 0.000000 -2.500000
v 1.161801 1.521743 -2.500000
v -0.500000 2.000000 -2.400000
v 1.161801 0.478257 -2.400000
v 1.161801 1.521743 -2.400000
v 1.234314 1.000000 -2.500000
v 1.234314 1.000000 -2.400000
v 1.161801 0.478257 -2.500000
v -1.234314 1.000000 -2.500000
v 0.000000 2.000000 -2.000000
v 0.000000 2.000000 -2.400000
v -0.500000 2.000000 -2.000000
v 1.234314 1.000000 -2.000000
v 1.161801 0.478257 -2.000000
v 0.500000 2.000000 -2.000000
v 1.161801 1.521743 -2.000000
v -2.000000 0.000000 -1.000000
v -2.400000 0.000000 -0.500000
v -2.000000 0.000000 -0.500000
v -2.400000 1.521743 1.161801
v -2.000000 2.000000 1.000000
v -2.000000 1.521743 1.161801
v -2.400000 0.000000 1.000000
v -2.000000 0.478257 1.161801
v -2.000000 0.000000 1.000000
v -2.400000 0.478257 1.161801
v -2.000000 1.000000 1.234315
v -2.400000 1.000000 1.234315
v -2.000000 0.000000 0.500000
v -2.000000 0.000000 0.000000
v -2.400000 0.000000 0.500000
v -2.400000 0.000000 0.000000
v -2.500000 2.000000 -1.000000
v -2.400000 2.000000 -0.500000
v -2.400000 2.000000 -1.000000
v -2.500000 0.000000 -0.500000
v -2.400000 0.000000 -1.000000
v -2.500000 1.521743 1.161801
v -2.500000 2.000000 1.000000
v -2.400000 2.000000 1.000000
v -2.500000 0.000000 1.000000
v -2.500000 2.000000 0.500000
v -2.500000 0.000000 0.500000
v -2.500000 2.000000 -0.500000
v -2.500000 0.478257 1.161801
v -2.500000 0.000000 -1.000000
v -2.500000 1.521743 -1.161801
v -2.400000 2.000000 0.500000
v -2.400000 0.478257 -1.161801
v -2.400000 1.521743 -1.161801
v -2.500000 1.000000 -1.234314
v -2.400000 1.000000 -1.234314
v -2.500000 0.478257 -1.161801
v -2.500000 1.000000 1.234315
v -2.000000 2.000000 0.000000
v -2.400000 2.000000 0.000000
v -2.000000 2.000000 0.500000
v -2.000000 1.000000 -1.234314
v -2.000000 0.478257 -1.161801
v -2.000000 2.000000 -0.500000
v -2.000000 1.521743 -1.161801
v -1.500000 0.000000 0.500000
v -1.000000 0.000000 0.000000
v -1.500000 0.000000 0.000000
v -1.500000 0.000000 -0.500000
v -1.000000 0.000000 -1.000000
v -1.500000 0.000000 -1.000000
v -1.500000 0.000000 1.000000
v -1.000000 0.000000 0.500000
v -1.000000 0.000000 -0.500000
v 0.500000 0.000000 -0.500000
v 1.000000 0.000000 -1.000000
v 0.500000 0.000000 -1.000000
v 0.500000 0.000000 0.500000
v 1.000000 0.000000 0.000000
v 0.500000 0.000000 0.000000
v 0.500000 0.000000 1.000000
v 1.000000 0.000000 0.500000
v 1.000000 0.000000 -0.500000
v -0.500000 0.000000 -0.500000
v -0.500000 0.000000 0.000000
v 0.000000 0.000000 -0.500000
v 0.000000 0.000000 0.000000
v -1.000000 0.000000 1.000000
v -0.500000 0.000000 0.500000
v -0.500000 0.000000 1.000000
v 0.000000 0.000000 0.500000
v 0.000000 0.000000 1.000000
v -0.500000 0.000000 -1.000000
v 0.000000 0.000000 -1.000000
v -0.500000 0.000000 -1.500000
v -1.000000 0.000000 -1.500000
v 0.000000 0.000000 -1.500000
v 0.500000 0.000000 -1.500000
v 1.000000 0.000000 -1.500000
v 1.000000 1.521743 1.161801
v 1.000000 0.000000 1.000000
v 1.000000 1.000000 1.234315
v 1.000000 0.478257 1.161801
v 1.234314 1.000000 1.000000
v 1.000000 2.000000 1.000000
v 1.000000 2.000000 -2.000000
v 1.161801 0.478257 1.000000
v 1.161801 1.521743 1.000000
v -1.500000 2.000000 0.500000
v -1.000000 2.000000 1.000000
v -1.500000 2.000000 1.000000
v -1.500000 2.000000 -0.500000
v -1.000000 2.000000 0.000000
v -1.500000 2.000000 0.000000
v -1.000000 2.000000 0.500000
v -1.500000 2.000000 -1.000000
v -1.000000 2.000000 -0.500000
v 0.500000 2.000000 0.500000
v 0.500000 2.000000 1.000000
v 0.500000 2.000000 -0.500000
v 1.000000 2.000000 0.000000
v 0.500000 2.000000 0.000000
v 0.500000 2.000000 -1.000000
v 1.000000 2.000000 -0.500000
v 1.000000 2.000000 0.500000
v -0.500000 2.000000 0.500000
v -0.500000 2.000000 0.000000
v 0.000000 2.000000 0.500000
v 0.000000 2.000000 0.000000
v -1.000000 2.000000 -1.000000
v -0.500000 2.000000 -0.500000
v -0.500000 2.000000 -1.000000
v 0.000000 2.000000 -0.500000
v 0.000000 2.000000 -1.000000
v -0.500000 2.000000 1.000000
v 0.000000 2.000000 1.000000
v -1.000000 2.000000 -1.500000
v -0.500000 2.000000 -1.500000
v 0.000000 2.000000 -1.500000
v 0.500000 2.000000 -1.500000
v 1.000000 2.000000 -1.000000
v 1.000000 2.000000 -1.500000
v -2.000000 2.000000 -1.000000
v -1.500000 0.478257 -1.161801
v -1.500000 1.521743 -1.161801
v -1.500000 1.000000 -1.234314
v -1.161801 1.521743 -1.500000
v -1.234314 1.000000 -1.500000
v -1.161801 0.478257 -1.500000

# UV coordinates
vt 0.055282 0.750616
vt 0.013513 0.698404
vt 0.055282 0.698404
vt 0.777079 0.578950
vt 0.735310 0.628891
vt 0.735310 0.578950
vt 0.777079 0.420045
vt 0.735310 0.469986
vt 0.735310 0.420045
vt 0.777079 0.469986
vt 0.735310 0.524468
vt 0.777079 0.524468
vt 0.055282 0.593981
vt 0.013513 0.541769
vt 0.055282 0.541769
vt 0.055282 0.646193
vt 0.013513 0.593981
vt 0.013513 0.646193
vt 0.518422 0.826577
vt 0.507979 0.878788
vt 0.507979 0.826577
vt 0.679358 0.328059
vt 0.668916 0.380271
vt 0.668916 0.328059
vt 0.192152 0.936546
vt 0.202595 0.882064
vt 0.202595 0.936546
vt 0.192152 0.986487
vt 0.202595 0.986487
vt 0.037980 0.985925
vt 0.090192 0.777641
vt 0.090192 0.985925
vt 0.932277 0.628329
vt 0.984488 0.420045
vt 0.984488 0.628329
vt 0.037980 0.777641
vt 0.021085 0.936119
vt 0.932277 0.420045
vt 0.915381 0.578522
vt 0.952443 0.655916
vt 0.942000 0.864763
vt 0.942000 0.655916
vt 0.641891 0.328059
vt 0.631449 0.380271
vt 0.631449 0.328059
vt 0.154685 0.986487
vt 0.165127 0.777641
vt 0.165127 0.986487
vt 0.127660 0.777641
vt 0.117217 0.827582
vt 0.117217 0.777641
vt 0.127660 0.936546
vt 0.117217 0.986487
vt 0.117217 0.936546
vt 0.127660 0.882064
vt 0.117217 0.882064
vt 0.192152 0.827582
vt 0.202595 0.777641
vt 0.202595 0.827582
vt 0.127660 0.827582
vt 0.443487 0.826577
vt 0.433044 0.878788
vt 0.433044 0.826577
vt 0.192152 0.882064
vt 0.804104 0.288596
vt 0.814546 0.393019
vt 0.804104 0.393019
vt 0.710685 0.248822
vt 0.721128 0.353245
vt 0.710685 0.353245
vt 0.908371 0.013513
vt 0.960582 0.013513
vt 0.977478 0.063319
vt 0.845868 0.705723
vt 0.862764 0.655916
vt 0.914975 0.655916
vt 0.013513 0.065724
vt 0.055282 0.117936
vt 0.013513 0.117936
vt 0.055282 0.170147
vt 0.013513 0.170147
vt 0.055282 0.222359
vt 0.013513 0.222359
vt 0.500000 0.351250
vt 0.554482 0.393019
vt 0.500000 0.393019
vt 0.445518 0.351250
vt 0.445518 0.393019
vt 0.395577 0.351250
vt 0.395577 0.393019
vt 0.013513 0.013513
vt 0.055282 0.065724
vt 0.554482 0.351250
vt 0.604423 0.393019
vt 0.159705 0.437346
vt 0.211917 0.395577
vt 0.211917 0.437346
vt 0.552816 0.420045
vt 0.603861 0.461814
vt 0.552816 0.461814
vt 0.395577 0.420045
vt 0.444145 0.461814
vt 0.395577 0.461814
vt 0.444145 0.420045
vt 0.497925 0.461814
vt 0.497925 0.420045
vt 0.316340 0.437346
vt 0.368551 0.395577
vt 0.368551 0.437346
vt 0.264128 0.437346
vt 0.316340 0.395577
vt 0.264128 0.395577
vt 0.406019 0.826577
vt 0.395577 0.878788
vt 0.395577 0.826577
vt 0.545447 0.878788
vt 0.555889 0.826577
vt 0.555889 0.878788
vt 0.304555 0.937357
vt 0.314997 0.883577
vt 0.314997 0.937357
vt 0.304555 0.985925
vt 0.314997 0.985925
vt 0.856878 0.013513
vt 0.804666 0.222359
vt 0.804666 0.013513
vt 0.759059 0.864763
vt 0.811271 0.655916
vt 0.811271 0.864763
vt 0.856878 0.222359
vt 0.873774 0.063454
vt 0.759059 0.655916
vt 0.742163 0.814822
vt 0.352464 0.777641
vt 0.342022 0.985925
vt 0.342022 0.777641
vt 0.480954 0.826577
vt 0.470512 0.878788
vt 0.470512 0.826577
vt 0.229620 0.985925
vt 0.240062 0.777641
vt 0.240062 0.985925
vt 0.277529 0.777641
vt 0.267087 0.828686
vt 0.267087 0.777641
vt 0.277529 0.937357
vt 0.267087 0.985925
vt 0.267087 0.937357
vt 0.277529 0.883577
vt 0.267087 0.883577
vt 0.304555 0.828686
vt 0.314997 0.777641
vt 0.314997 0.828686
vt 0.277529 0.828686
vt 0.582914 0.878788
vt 0.593357 0.826577
vt 0.593357 0.878788
vt 0.304555 0.883577
vt 0.841572 0.288596
vt 0.852014 0.393019
vt 0.841572 0.393019
vt 0.758595 0.353245
vt 0.748153 0.248822
vt 0.758595 0.248822
vt 0.804104 0.420045
vt 0.856316 0.420045
vt 0.873212 0.469986
vt 0.638458 0.705857
vt 0.655354 0.655916
vt 0.707566 0.655916
vt 0.211917 0.368552
vt 0.264128 0.326782
vt 0.264128 0.368552
vt 0.316340 0.326782
vt 0.316340 0.368552
vt 0.368551 0.326782
vt 0.368551 0.368552
vt 0.673218 0.115861
vt 0.631449 0.170752
vt 0.631449 0.115861
vt 0.673218 0.062081
vt 0.631449 0.062081
vt 0.673218 0.013513
vt 0.631449 0.013513
vt 0.159705 0.368552
vt 0.211917 0.326782
vt 0.673218 0.170752
vt 0.631449 0.221797
vt 0.316340 0.489558
vt 0.264128 0.541769
vt 0.264128 0.489558
vt 0.211917 0.489558
vt 0.159705 0.541769
vt 0.159705 0.489558
vt 0.368551 0.489558
vt 0.316340 0.541769
vt 0.211917 0.541769
vt 0.211917 0.698404
vt 0.159705 0.750616
vt 0.159705 0.698404
vt 0.316340 0.698404
vt 0.264128 0.750616
vt 0.264128 0.698404
vt 0.368551 0.698404
vt 0.316340 0.750616
vt 0.211917 0.750616
vt 0.211917 0.593981
vt 0.264128 0.593981
vt 0.211917 0.646193
vt 0.264128 0.646193
vt 0.368551 0.541769
vt 0.316340 0.593981
vt 0.368551 0.593981
vt 0.316340 0.646193
vt 0.368551 0.646193
vt 0.159705 0.593981
vt 0.159705 0.646193
vt 0.107493 0.593981
vt 0.107493 0.541769
vt 0.107493 0.646193
vt 0.107493 0.698404
vt 0.107493 0.750616
vt 0.552816 0.775084
vt 0.395577 0.775084
vt 0.497925 0.775084
vt 0.444145 0.775084
vt 0.500000 0.037980
vt 0.604423 0.037980
vt 0.604423 0.351250
vt 0.445518 0.037980
vt 0.554482 0.037980
vt 0.445518 0.021085
vt 0.500000 0.013513
vt 0.499719 0.799551
vt 0.603861 0.775084
vt 0.554054 0.791980
vt 0.395577 0.037980
vt 0.316340 0.274571
vt 0.368551 0.222359
vt 0.368551 0.274571
vt 0.211917 0.274571
vt 0.264128 0.222359
vt 0.264128 0.274571
vt 0.316340 0.222359
vt 0.159705 0.274571
vt 0.211917 0.222359
vt 0.316340 0.065724
vt 0.368551 0.013513
vt 0.368551 0.065724
vt 0.211917 0.065724
vt 0.264128 0.013513
vt 0.264128 0.065724
vt 0.159705 0.065724
vt 0.211917 0.013513
vt 0.316340 0.013513
vt 0.316340 0.170147
vt 0.264128 0.170147
vt 0.316340 0.117936
vt 0.264128 0.117936
vt 0.159705 0.222359
vt 0.211917 0.170147
vt 0.159705 0.170147
vt 0.211917 0.117936
vt 0.159705 0.117936
vt 0.368551 0.170147
vt 0.368551 0.117936
vt 0.107493 0.222359
vt 0.107493 0.170147
vt 0.107493 0.117936
vt 0.107493 0.065724
vt 0.159705 0.013513
vt 0.107493 0.013513
vt 0.725429 0.221797
vt 0.673218 0.221797
vt 0.725429 0.062081
vt 0.725429 0.170752
vt 0.725429 0.115861
vt 0.683098 0.578950
vt 0.683098 0.420045
vt 0.683098 0.524468
vt 0.683098 0.469986
vt 0.630886 0.420045
vt 0.647782 0.469986
vt 0.655354 0.524468
vt 0.760745 0.168162
vt 0.777641 0.217969
vt 0.055282 0.013513
vt 0.159705 0.326782
vt 0.013513 0.750616
vt 0.777079 0.628891
vt 0.518422 0.878788
vt 0.679358 0.380271
vt 0.013513 0.881783
vt 0.021085 0.827448
vt 0.907809 0.524187
vt 0.915381 0.469851
vt 0.952443 0.864763
vt 0.641891 0.380271
vt 0.154685 0.777641
vt 0.127660 0.986487
vt 0.192152 0.777641
vt 0.443487 0.878788
vt 0.814546 0.288596
vt 0.721128 0.248822
vt 0.985050 0.117655
vt 0.977478 0.171990
vt 0.908371 0.221797
vt 0.960582 0.221797
vt 0.914975 0.864201
vt 0.838296 0.760059
vt 0.862764 0.864201
vt 0.845868 0.814394
vt 0.159705 0.395577
vt 0.603861 0.420045
vt 0.406019 0.878788
vt 0.545447 0.826577
vt 0.881346 0.117936
vt 0.873774 0.172418
vt 0.734591 0.760339
vt 0.742163 0.705857
vt 0.352464 0.985925
vt 0.480954 0.878788
vt 0.229620 0.777641
vt 0.277529 0.985925
vt 0.304555 0.777641
vt 0.582914 0.826577
vt 0.852014 0.288596
vt 0.748153 0.353245
vt 0.880784 0.524468
vt 0.873212 0.578950
vt 0.804104 0.628891
vt 0.856316 0.628891
vt 0.707566 0.864763
vt 0.630886 0.760339
vt 0.655354 0.864763
vt 0.638458 0.814822
vt 0.368551 0.750616
vt 0.725429 0.013513
vt 0.683098 0.628891
vt 0.753173 0.113827
vt 0.683660 0.301034
vt 0.631449 0.301034
vt 0.683660 0.248822

# vertex normals
vn 0.000000 1.000000 0.000000
vn 0.947254 -0.320484 0.000000
vn 0.947254 0.320484 0.000000
vn 0.990475 0.137696 0.000000
vn 0.990475 -0.137696 0.000000
vn 0.000000 -1.000000 0.000000
vn -0.990475 0.137696 0.000000
vn -0.947254 0.320484 0.000000
vn 0.000000 0.000000 -1.000000
vn 1.000000 0.000000 0.000000
vn -1.000000 0.000000 0.000000
vn -0.947254 -0.320484 0.000000
vn -0.990475 -0.137696 0.000000
vn 0.000000 0.000000 1.000000
vn 0.000000 -0.320484 -0.947254
vn 0.000000 0.320484 -0.947254
vn 0.000000 0.137696 -0.990475
vn 0.000000 -0.137696 -0.990475
vn 0.000000 0.137696 0.990475
vn 0.000000 0.320484 0.947254
vn 0.000000 -0.320484 0.947254
vn 0.000000 -0.137696 0.990475
vn -0.703717 0.097802 -0.703717
vn -0.703717 -0.097802 -0.703717
vn -0.687696 -0.232699 -0.687696
vn -0.687696 0.232699 -0.687696
vn 0.687696 0.232699 0.687696
vn 0.703717 0.097802 0.703717
vn 0.703717 -0.097802 0.703717
vn 0.687696 -0.232699 0.687696

# Mesh
g Plane
usemtl None
f 1/1/1 2/2/1 3/3/1
f 4/4/2 5/5/2 6/6/2
f 7/7/3 8/8/3 9/9/3
f 10/10/4 11/11/4 8/8/4
f 12/12/5 6/6/5 11/11/5
f 13/13/1 7/14/1 9/15/1
f 14/16/1 15/17/1 13/13/1
f 3/3/1 16/18/1 14/16/1
f 17/19/1 18/20/1 19/21/1
f 20/22/6 21/23/6 2/24/6
f 22/25/7 12/26/7 4/27/7
f 23/28/8 4/27/8 24/29/8
f 25/30/9 26/31/9 27/32/9
f 17/33/9 20/34/9 28/35/9
f 23/36/9 25/30/9 29/37/9
f 30/38/9 17/33/9 31/39/9
f 27/40/10 32/41/10 15/42/10
f 26/43/1 24/44/1 32/45/1
f 28/46/11 2/47/11 18/48/11
f 30/49/2 33/50/2 21/51/2
f 31/52/3 19/53/3 34/54/3
f 35/55/4 34/54/4 36/56/4
f 29/57/12 7/58/12 10/59/12
f 37/60/5 36/56/5 33/50/5
f 25/61/6 15/62/6 7/63/6
f 38/64/13 10/59/13 12/26/13
f 2/65/1 27/66/1 15/67/1
f 32/68/6 28/69/6 18/70/6
f 2/71/14 21/72/14 33/73/14
f 10/74/14 7/75/14 15/76/14
f 18/77/6 39/78/6 40/79/6
f 40/79/6 41/80/6 32/81/6
f 32/81/6 5/82/6 24/83/6
f 42/84/13 34/85/13 36/86/13
f 43/87/7 36/86/7 33/88/7
f 1/89/8 33/88/8 21/90/8
f 19/91/6 44/92/6 18/77/6
f 45/93/12 19/94/12 34/85/12
f 46/95/1 47/96/1 48/97/1
f 49/98/15 50/99/15 51/100/15
f 52/101/16 53/102/16 54/103/16
f 55/104/17 56/105/17 53/102/17
f 57/106/18 51/100/18 56/105/18
f 58/107/1 52/108/1 54/109/1
f 59/110/1 60/111/1 58/107/1
f 48/97/1 61/112/1 59/110/1
f 62/113/1 63/114/1 64/115/1
f 65/116/6 66/117/6 47/118/6
f 67/119/19 57/120/19 49/121/19
f 68/122/20 49/121/20 69/123/20
f 70/124/11 71/125/11 72/126/11
f 62/127/11 65/128/11 73/129/11
f 68/130/11 70/124/11 74/131/11
f 75/132/11 62/127/11 76/133/11
f 72/134/9 77/135/9 60/136/9
f 71/137/1 69/138/1 77/139/1
f 73/140/14 47/141/14 63/142/14
f 75/143/15 78/144/15 66/145/15
f 76/146/16 64/147/16 79/148/16
f 80/149/17 79/148/17 81/150/17
f 74/151/21 52/152/21 55/153/21
f 82/154/18 81/150/18 78/144/18
f 70/155/6 60/156/6 52/157/6
f 83/158/22 55/153/22 57/120/22
f 47/159/1 72/160/1 60/161/1
f 77/162/6 73/163/6 63/164/6
f 47/165/10 66/166/10 78/167/10
f 55/168/10 52/169/10 60/170/10
f 63/171/6 84/172/6 85/173/6
f 85/173/6 86/174/6 77/175/6
f 77/175/6 50/176/6 69/177/6
f 87/178/22 79/179/22 81/180/22
f 88/181/19 81/180/19 78/182/19
f 46/183/20 78/182/20 66/184/20
f 64/185/6 89/186/6 63/171/6
f 90/187/21 64/188/21 79/179/21
f 91/189/1 92/190/1 93/191/1
f 94/192/1 95/193/1 96/194/1
f 97/195/1 98/196/1 91/189/1
f 93/191/1 99/197/1 94/192/1
f 100/198/1 101/199/1 102/200/1
f 103/201/1 104/202/1 105/203/1
f 106/204/1 107/205/1 103/201/1
f 105/203/1 108/206/1 100/198/1
f 92/190/1 109/207/1 99/197/1
f 110/208/1 111/209/1 109/207/1
f 112/210/1 100/198/1 111/209/1
f 113/211/1 114/212/1 98/196/1
f 115/213/1 116/214/1 114/212/1
f 117/215/1 103/201/1 116/214/1
f 98/196/1 110/208/1 92/190/1
f 114/212/1 112/210/1 110/208/1
f 116/214/1 105/203/1 112/210/1
f 99/197/1 118/216/1 95/193/1
f 109/207/1 119/217/1 118/216/1
f 111/209/1 102/200/1 119/217/1
f 95/193/1 120/218/1 121/219/1
f 118/216/1 122/220/1 120/218/1
f 119/217/1 123/221/1 122/220/1
f 102/200/1 124/222/1 123/221/1
f 50/99/15 125/223/15 51/100/15
f 53/102/16 126/224/16 54/103/16
f 51/100/18 127/225/18 56/105/18
f 56/105/17 128/226/17 53/102/17
f 43/87/7 129/227/7 42/84/7
f 45/93/12 130/228/12 131/229/12
f 1/89/8 132/230/8 43/87/8
f 42/84/13 133/231/13 45/93/13
f 129/227/23 128/232/23 127/233/23
f 125/223/24 129/234/24 127/225/24
f 125/223/25 130/235/25 133/236/25
f 132/230/26 126/237/26 128/232/26
f 134/238/6 135/239/6 136/240/6
f 137/241/6 138/242/6 139/243/6
f 139/243/6 140/244/6 134/238/6
f 141/245/6 142/246/6 137/241/6
f 143/247/6 130/248/6 144/249/6
f 145/250/6 146/251/6 147/252/6
f 148/253/6 149/254/6 145/250/6
f 147/252/6 150/255/6 143/247/6
f 138/242/6 151/256/6 140/244/6
f 152/257/6 153/258/6 151/256/6
f 154/259/6 143/247/6 153/258/6
f 155/260/6 156/261/6 142/246/6
f 157/262/6 158/263/6 156/261/6
f 159/264/6 145/250/6 158/263/6
f 142/246/6 152/257/6 138/242/6
f 156/261/6 154/259/6 152/257/6
f 158/263/6 147/252/6 154/259/6
f 140/244/6 160/265/6 135/239/6
f 151/256/6 161/266/6 160/265/6
f 153/258/6 144/249/6 161/266/6
f 157/262/6 162/267/6 163/268/6
f 159/264/6 163/268/6 164/269/6
f 148/253/6 164/269/6 165/270/6
f 166/271/6 165/270/6 167/272/6
f 90/187/21 141/273/21 168/274/21
f 46/183/20 169/275/20 88/181/20
f 87/178/22 170/276/22 90/187/22
f 88/181/19 171/277/19 87/178/19
f 5/5/2 172/278/2 6/6/2
f 8/8/3 121/279/3 9/9/3
f 6/6/5 173/280/5 11/11/5
f 11/11/4 174/281/4 8/8/4
f 96/282/27 174/281/27 169/283/27
f 169/283/28 173/280/28 171/284/28
f 171/277/29 172/285/29 170/276/29
f 141/273/30 172/285/30 162/286/30
f 131/287/6 165/270/6 44/92/6
f 165/270/6 39/78/6 44/92/6
f 164/269/6 41/80/6 39/78/6
f 163/268/6 5/82/6 41/80/6
f 168/288/6 137/241/6 89/186/6
f 84/172/6 134/238/6 86/174/6
f 89/186/6 139/243/6 84/172/6
f 86/174/6 136/240/6 50/176/6
f 59/110/1 94/192/1 48/97/1
f 54/109/1 91/189/1 58/107/1
f 48/97/1 96/194/1 46/95/1
f 58/107/1 93/191/1 59/110/1
f 123/221/1 1/1/1 3/3/1
f 122/220/1 3/3/1 14/16/1
f 120/218/1 14/16/1 13/13/1
f 9/15/1 120/218/1 13/13/1
f 1/1/1 21/289/1 2/2/1
f 4/4/2 24/290/2 5/5/2
f 7/7/3 10/10/3 8/8/3
f 10/10/4 12/12/4 11/11/4
f 12/12/5 4/4/5 6/6/5
f 13/13/1 15/17/1 7/14/1
f 14/16/1 16/18/1 15/17/1
f 3/3/1 2/2/1 16/18/1
f 17/19/1 28/291/1 18/20/1
f 20/22/6 30/292/6 21/23/6
f 22/25/7 38/64/7 12/26/7
f 23/28/8 22/25/8 4/27/8
f 25/30/9 23/36/9 26/31/9
f 17/33/9 30/38/9 20/34/9
f 38/293/9 22/294/9 29/37/9
f 22/294/9 23/36/9 29/37/9
f 35/295/9 37/296/9 31/39/9
f 37/296/9 30/38/9 31/39/9
f 27/40/10 26/297/10 32/41/10
f 26/43/1 23/298/1 24/44/1
f 28/46/11 20/299/11 2/47/11
f 30/49/2 37/60/2 33/50/2
f 31/52/3 17/300/3 19/53/3
f 35/55/4 31/52/4 34/54/4
f 29/57/12 25/301/12 7/58/12
f 37/60/5 35/55/5 36/56/5
f 25/61/6 27/302/6 15/62/6
f 38/64/13 29/57/13 10/59/13
f 2/65/1 20/303/1 27/66/1
f 32/68/6 26/304/6 28/69/6
f 33/73/14 36/305/14 2/71/14
f 36/305/14 34/306/14 18/307/14
f 2/71/14 36/305/14 18/307/14
f 34/306/14 19/308/14 18/307/14
f 15/76/14 32/309/14 12/310/14
f 32/309/14 24/311/14 4/312/14
f 12/310/14 32/309/14 4/312/14
f 12/310/14 10/74/14 15/76/14
f 18/77/6 44/92/6 39/78/6
f 40/79/6 39/78/6 41/80/6
f 32/81/6 41/80/6 5/82/6
f 42/84/13 45/93/13 34/85/13
f 43/87/7 42/84/7 36/86/7
f 1/89/8 43/87/8 33/88/8
f 19/91/6 131/287/6 44/92/6
f 45/93/12 131/229/12 19/94/12
f 46/95/1 66/313/1 47/96/1
f 49/98/15 69/314/15 50/99/15
f 52/101/16 55/104/16 53/102/16
f 55/104/17 57/106/17 56/105/17
f 57/106/18 49/98/18 51/100/18
f 58/107/1 60/111/1 52/108/1
f 59/110/1 61/112/1 60/111/1
f 48/97/1 47/96/1 61/112/1
f 62/113/1 73/315/1 63/114/1
f 65/116/6 75/316/6 66/117/6
f 67/119/19 83/158/19 57/120/19
f 68/122/20 67/119/20 49/121/20
f 70/124/11 68/130/11 71/125/11
f 62/127/11 75/132/11 65/128/11
f 83/317/11 67/318/11 74/131/11
f 67/318/11 68/130/11 74/131/11
f 80/319/11 82/320/11 76/133/11
f 82/320/11 75/132/11 76/133/11
f 72/134/9 71/321/9 77/135/9
f 71/137/1 68/322/1 69/138/1
f 73/140/14 65/323/14 47/141/14
f 75/143/15 82/154/15 78/144/15
f 76/146/16 62/324/16 64/147/16
f 80/149/17 76/146/17 79/148/17
f 74/151/21 70/325/21 52/152/21
f 82/154/18 80/149/18 81/150/18
f 70/155/6 72/326/6 60/156/6
f 83/158/22 74/151/22 55/153/22
f 47/159/1 65/327/1 72/160/1
f 77/162/6 71/328/6 73/163/6
f 78/167/10 81/329/10 47/165/10
f 81/329/10 79/330/10 63/331/10
f 47/165/10 81/329/10 63/331/10
f 79/330/10 64/332/10 63/331/10
f 60/170/10 77/333/10 57/334/10
f 77/333/10 69/335/10 49/336/10
f 57/334/10 77/333/10 49/336/10
f 57/334/10 55/168/10 60/170/10
f 63/171/6 89/186/6 84/172/6
f 85/173/6 84/172/6 86/174/6
f 77/175/6 86/174/6 50/176/6
f 87/178/22 90/187/22 79/179/22
f 88/181/19 87/178/19 81/180/19
f 46/183/20 88/181/20 78/182/20
f 64/185/6 168/288/6 89/186/6
f 90/187/21 168/274/21 64/188/21
f 91/189/1 98/196/1 92/190/1
f 94/192/1 99/197/1 95/193/1
f 97/195/1 113/211/1 98/196/1
f 93/191/1 92/190/1 99/197/1
f 100/198/1 108/206/1 101/199/1
f 103/201/1 107/205/1 104/202/1
f 106/204/1 126/337/1 107/205/1
f 105/203/1 104/202/1 108/206/1
f 92/190/1 110/208/1 109/207/1
f 110/208/1 112/210/1 111/209/1
f 112/210/1 105/203/1 100/198/1
f 113/211/1 115/213/1 114/212/1
f 115/213/1 117/215/1 116/214/1
f 117/215/1 106/204/1 103/201/1
f 98/196/1 114/212/1 110/208/1
f 114/212/1 116/214/1 112/210/1
f 116/214/1 103/201/1 105/203/1
f 99/197/1 109/207/1 118/216/1
f 109/207/1 111/209/1 119/217/1
f 111/209/1 100/198/1 102/200/1
f 95/193/1 118/216/1 120/218/1
f 118/216/1 119/217/1 122/220/1
f 119/217/1 102/200/1 123/221/1
f 102/200/1 101/199/1 124/222/1
f 50/99/15 130/235/15 125/223/15
f 53/102/16 128/226/16 126/224/16
f 51/100/18 125/223/18 127/225/18
f 56/105/17 127/225/17 128/226/17
f 43/87/7 132/230/7 129/227/7
f 45/93/12 133/231/12 130/228/12
f 1/89/8 126/237/8 132/230/8
f 42/84/13 129/227/13 133/231/13
f 129/227/23 132/230/23 128/232/23
f 125/223/24 133/236/24 129/234/24
f 134/238/6 140/244/6 135/239/6
f 137/241/6 142/246/6 138/242/6
f 139/243/6 138/242/6 140/244/6
f 141/245/6 155/260/6 142/246/6
f 143/247/6 150/255/6 130/248/6
f 145/250/6 149/254/6 146/251/6
f 148/253/6 166/271/6 149/254/6
f 147/252/6 146/251/6 150/255/6
f 138/242/6 152/257/6 151/256/6
f 152/257/6 154/259/6 153/258/6
f 154/259/6 147/252/6 143/247/6
f 155/260/6 157/262/6 156/261/6
f 157/262/6 159/264/6 158/263/6
f 159/264/6 148/253/6 145/250/6
f 142/246/6 156/261/6 152/257/6
f 156/261/6 158/263/6 154/259/6
f 158/263/6 145/250/6 147/252/6
f 140/244/6 151/256/6 160/265/6
f 151/256/6 153/258/6 161/266/6
f 153/258/6 143/247/6 144/249/6
f 157/262/6 155/260/6 162/267/6
f 159/264/6 157/262/6 163/268/6
f 148/253/6 159/264/6 164/269/6
f 166/271/6 148/253/6 165/270/6
f 90/187/21 170/276/21 141/273/21
f 46/183/20 96/338/20 169/275/20
f 87/178/22 171/277/22 170/276/22
f 88/181/19 169/275/19 171/277/19
f 5/5/2 162/339/2 172/278/2
f 8/8/3 174/281/3 121/279/3
f 6/6/5 172/278/5 173/280/5
f 11/11/4 173/280/4 174/281/4
f 96/282/27 121/279/27 174/281/27
f 169/283/28 174/281/28 173/280/28
f 171/277/29 173/340/29 172/285/29
f 141/273/30 170/276/30 172/285/30
f 131/287/6 167/272/6 165/270/6
f 165/270/6 164/269/6 39/78/6
f 164/269/6 163/268/6 41/80/6
f 163/268/6 162/267/6 5/82/6
f 168/288/6 141/245/6 137/241/6
f 84/172/6 139/243/6 134/238/6
f 89/186/6 137/241/6 139/243/6
f 86/174/6 134/238/6 136/240/6
f 59/110/1 93/191/1 94/192/1
f 54/109/1 97/195/1 91/189/1
f 48/97/1 94/192/1 96/194/1
f 58/107/1 91/189/1 93/191/1
f 123/221/1 124/222/1 1/1/1
f 122/220/1 123/221/1 3/3/1
f 120/218/1 122/220/1 14/16/1
f 9/15/1 121/219/1 120/218/1
f 96/194/1 95/193/1 121/219/1
f 155/341/6 141/342/6 162/343/6
