# Blender 3.6.2
# www.blender.org
mtllib Room.mtl
o Plane
v 1.000000 0.000000 -2.400000
v -1.000000 0.000000 -2.400000
v 1.000000 2.000000 -2.400000
v -1.000000 2.000000 -2.400000
v -1.161801 0.478257 -2.400000
v -1.234314 1.000000 -2.400000
v -1.161801 1.521743 -2.400000
v 1.161801 1.521743 -2.400000
v 1.234314 1.000000 -2.400000
v 1.161801 0.478257 -2.400000
v 0.500000 0.000000 -2.400000
v 0.000000 0.000000 -2.400000
v -0.500000 0.000000 -2.400000
v -0.500000 2.000000 -2.400000
v 0.000000 2.000000 -2.400000
v 0.500000 2.000000 -2.400000
v -0.500000 0.000000 -2.500000
v -1.000000 0.000000 -2.500000
v 1.161801 0.478257 -2.500000
v 1.000000 0.000000 -2.500000
v -1.161801 1.521743 -2.500000
v -1.000000 2.000000 -2.500000
v 0.500000 2.000000 -2.500000
v 1.000000 2.000000 -2.500000
v -1.161801 0.478257 -2.500000
v -1.234314 1.000000 -2.500000
v 1.161801 1.521743 -2.500000
v 1.234314 1.000000 -2.500000
v 0.500000 0.000000 -2.500000
v -0.500000 2.000000 -2.500000
v -1.000000 0.000000 -2.000000
v 1.000000 0.000000 -2.000000
v -1.000000 2.000000 -2.000000
v 1.000000 2.000000 -2.000000
v -1.114411 0.478257 -2.114411
v -1.165685 1.000000 -2.165685
v -1.114411 1.521743 -2.114411
v 1.114411 0.478257 -2.114411
v 1.165685 1.000000 -2.165685
v 1.114411 1.521743 -2.114411
v -0.500000 0.000000 -2.000000
v 0.000000 0.000000 -2.000000
v 0.500000 0.000000 -2.000000
v -0.500000 2.000000 -2.000000
v 0.000000 2.000000 -2.000000
v 0.500000 2.000000 -2.000000
v -1.000000 0.000000 2.500000
v 1.000000 0.000000 2.500000
v -0.500000 0.000000 2.500000
v 0.000000 0.000000 2.500000
v 0.500000 0.000000 2.500000
v -0.500000 0.000000 2.000000
v -0.500000 0.000000 1.500000
v -0.500000 0.000000 1.000000
v -0.500000 0.000000 0.500000
v -0.500000 0.000000 0.000000
v -0.500000 0.000000 -0.500000
v -0.500000 0.000000 -1.000000
v -0.500000 0.000000 -1.500000
v -1.000000 0.000000 -1.500000
v -1.000000 0.000000 -1.000000
v -1.000000 0.000000 -0.500000
v -1.000000 0.000000 0.000000
v -1.000000 0.000000 0.500000
v -1.000000 0.000000 1.000000
v -1.000000 0.000000 1.500000
v -1.000000 0.000000 2.000000
v 0.500000 0.000000 2.000000
v 0.500000 0.000000 1.500000
v 0.500000 0.000000 1.000000
v 0.500000 0.000000 0.500000
v 0.500000 0.000000 0.000000
v 0.500000 0.000000 -0.500000
v 0.500000 0.000000 -1.000000
v 0.500000 0.000000 -1.500000
v 0.000000 0.000000 -1.500000
v 0.000000 0.000000 -1.000000
v 0.000000 0.000000 -0.500000
v 0.000000 0.000000 0.000000
v 0.000000 0.000000 0.500000
v 0.000000 0.000000 1.000000
v 0.000000 0.000000 1.500000
v 0.000000 0.000000 2.000000
v 1.000000 0.000000 2.000000
v 1.000000 0.000000 1.500000
v 1.000000 0.000000 1.000000
v 1.000000 0.000000 0.500000
v 1.000000 0.000000 0.000000
v 1.000000 0.000000 -0.500000
v 1.000000 0.000000 -1.000000
v 1.000000 0.000000 -1.500000
v -2.500000 0.000000 -2.000000
v -2.500000 0.000000 2.500000
v -2.500000 0.000000 -1.500000
v -2.500000 0.000000 -1.000000
v -2.500000 0.000000 -0.500000
v -2.500000 0.000000 0.000000
v -2.500000 0.000000 0.500000
v -2.500000 0.000000 1.000000
v -2.500000 0.000000 1.500000
v -2.500000 0.000000 2.000000
v 2.500000 0.000000 -2.000000
v 2.500000 0.000000 2.500000
v 2.500000 0.000000 2.000000
v 2.500000 0.000000 1.500000
v 2.500000 0.000000 1.000000
v 2.500000 0.000000 0.500000
v 2.500000 0.000000 0.000000
v 2.500000 0.000000 -0.500000
v 2.500000 0.000000 -1.000000
v 2.500000 0.000000 -1.500000
v -2.000000 0.000000 -1.500000
v -1.500000 0.000000 -1.500000
v -1.500000 0.000000 -2.000000
v -2.000000 0.000000 -2.000000
v -2.000000 0.000000 2.000000
v -1.500000 0.000000 2.000000
v -1.500000 0.000000 1.500000
v -2.000000 0.000000 1.500000
v -2.000000 0.000000 0.500000
v -1.500000 0.000000 0.500000
v -1.500000 0.000000 0.000000
v -2.000000 0.000000 0.000000
v -2.000000 0.000000 -1.000000
v -1.500000 0.000000 -1.000000
v -2.000000 0.000000 2.500000
v -1.500000 0.000000 2.500000
v -2.000000 0.000000 1.000000
v -1.500000 0.000000 1.000000
v -2.000000 0.000000 -0.500000
v -1.500000 0.000000 -0.500000
v 2.000000 0.000000 0.000000
v 1.500000 0.000000 0.000000
v 1.500000 0.000000 0.500000
v 2.000000 0.000000 0.500000
v 2.000000 0.000000 -2.000000
v 1.500000 0.000000 -2.000000
v 1.500000 0.000000 -1.500000
v 2.000000 0.000000 -1.500000
v 2.000000 0.000000 1.500000
v 1.500000 0.000000 1.500000
v 1.500000 0.000000 2.000000
v 2.000000 0.000000 2.000000
v 2.000000 0.000000 -0.500000
v 1.500000 0.000000 -0.500000
v 2.000000 0.000000 1.000000
v 1.500000 0.000000 1.000000
v 2.000000 0.000000 -1.000000
v 1.500000 0.000000 -1.000000
v 1.500000 0.000000 2.500000
v 2.000000 0.000000 2.500000
v -2.500000 0.000000 -2.000000
v -2.500000 2.000000 -2.000000
v -2.614411 0.478257 -2.114411
v -2.665685 1.000000 -2.165685
v -2.614411 1.521743 -2.114411
v 2.500000 0.000000 -2.000000
v 2.500000 2.000000 -2.000000
v 2.614411 0.478257 -2.114411
v 2.665685 1.000000 -2.165685
v 2.614411 1.521743 -2.114411
v -2.500000 0.000000 2.500000
v -2.500000 2.000000 2.500000
v -2.614411 0.478257 2.614411
v -2.665685 1.000000 2.665685
v -2.614411 1.521743 2.614411
v 2.500000 0.000000 2.500000
v 2.500000 2.000000 2.500000
v 2.614411 0.478257 2.614411
v 2.665685 1.000000 2.665685
v 2.614411 1.521743 2.614411
vn -0.0000 1.0000 -0.0000
vn 0.9607 -0.2695 -0.0664
vn 0.9607 0.2695 -0.0664
vn 0.9706 0.1045 -0.2166
vn 0.9706 -0.1045 -0.2166
vn -0.0000 -1.0000 -0.0000
vn -0.9905 0.1377 -0.0000
vn -0.9473 0.3205 -0.0000
vn -0.0000 -0.0000 -1.0000
vn 1.0000 -0.0000 -0.0000
vn -1.0000 -0.0000 -0.0000
vn 0.9473 -0.3205 -0.0000
vn 0.9473 0.3205 -0.0000
vn 0.9905 0.1377 -0.0000
vn -0.9473 -0.3205 -0.0000
vn 0.9905 -0.1377 -0.0000
vn -0.9905 -0.1377 -0.0000
vn -0.0000 -0.0000 1.0000
vn -0.9706 -0.1045 -0.2166
vn -0.9706 0.1045 -0.2166
vn -0.9607 0.2695 -0.0664
vn -0.9607 -0.2695 -0.0664
vn -0.0000 -0.2327 0.9726
vn -0.0000 0.2327 0.9726
vn -0.0000 -0.0978 0.9952
vn -0.0000 0.0978 0.9952
vn 0.9726 -0.2327 -0.0000
vn 0.9952 0.0978 -0.0000
vn 0.9726 0.2327 -0.0000
vn 0.9952 -0.0978 -0.0000
vn -0.0000 -0.2327 -0.9726
vn -0.0000 0.0978 -0.9952
vn -0.0000 0.2327 -0.9726
vn -0.0000 -0.0978 -0.9952
vn -0.9726 0.2327 -0.0000
vn -0.9952 0.0978 -0.0000
vn -0.9952 -0.0978 -0.0000
vn -0.9726 -0.2327 -0.0000
vt 0.550000 0.916667
vt 0.600000 0.916667
vt 0.600000 1.000000
vt 0.550000 1.000000
vt 0.400000 0.916667
vt 0.400000 1.000000
vt 0.400000 1.000000
vt 0.400000 0.916667
vt 0.400000 1.000000
vt 0.400000 0.916667
vt 0.400000 1.000000
vt 0.400000 0.916667
vt 0.450000 0.916667
vt 0.450000 1.000000
vt 0.500000 0.916667
vt 0.500000 1.000000
vt 0.450000 1.000000
vt 0.600000 1.000000
vt 0.000000 0.000000
vt 0.550000 0.916667
vt 0.500000 0.916667
vt 0.450000 0.916667
vt 0.600000 0.916667
vt 0.450000 0.916667
s 0
f 43/1/1 32/2/1 1/3/1 11/4/1
f 37/5/2 7/6/2 4/7/2 33/8/2
f 31/8/3 2/7/3 5/9/3 35/10/3
f 35/10/4 5/9/4 6/11/4 36/12/4
f 36/12/5 6/11/5 7/6/5 37/5/5
f 31/8/1 41/13/1 13/14/1 2/7/1
f 41/13/1 42/15/1 12/16/1 13/14/1
f 42/15/1 43/1/1 11/4/1 12/16/1
f 3/3/1 24/3/1 23/4/1 16/4/1
f 11/4/6 29/4/6 20/3/6 1/3/6
f 7/6/7 21/6/7 26/11/7 6/11/7
f 4/7/8 22/7/8 21/6/8 7/6/8
f 17/14/9 18/7/9 22/7/9 30/17/9
f 23/4/9 24/3/9 20/3/9 29/4/9
f 21/6/9 22/7/9 18/7/9 25/9/9 26/11/9
f 19/3/9 20/3/9 24/3/9 27/3/9 28/18/9
f 13/19/10 17/19/10 30/19/10 14/19/10
f 14/17/1 30/17/1 22/7/1 4/7/1
f 16/19/11 23/19/11 29/19/11 11/19/11
f 1/3/12 20/3/12 19/3/12 10/3/12
f 8/3/13 27/3/13 24/3/13 3/3/13
f 9/18/14 28/18/14 27/3/14 8/3/14
f 5/9/15 25/9/15 18/7/15 2/7/15
f 10/3/16 19/3/16 28/18/16 9/18/16
f 2/7/6 18/7/6 17/14/6 13/14/6
f 6/11/17 26/11/17 25/9/17 5/9/17
f 13/19/1 11/4/1 29/4/1 17/19/1
f 16/4/6 14/19/6 30/19/6 23/4/6
f 9/19/18 8/19/18 3/19/18 16/19/18 11/19/18 1/19/18 10/19/18
f 14/19/18 4/19/18 7/19/18 6/19/18 5/19/18 2/19/18 13/19/18
f 15/16/6 16/4/6 46/20/6 45/21/6
f 14/17/6 15/16/6 45/21/6 44/22/6
f 4/7/6 14/17/6 44/22/6 33/8/6
f 9/18/19 39/23/19 40/2/19 8/3/19
f 10/3/20 38/2/20 39/23/20 9/18/20
f 1/3/21 32/2/21 38/2/21 10/3/21
f 16/4/6 3/3/6 34/2/6 46/20/6
f 8/3/22 40/2/22 34/2/22 3/3/22
f 52/24/1 67/8/1 47/8/1 49/13/1
f 68/1/1 83/15/1 50/15/1 51/1/1
f 83/15/1 52/24/1 49/13/1 50/15/1
f 84/2/1 68/1/1 51/1/1 48/2/1
f 32/2/1 43/1/1 75/1/1 91/2/1
f 91/2/1 75/1/1 74/1/1 90/2/1
f 90/2/1 74/1/1 73/1/1 89/2/1
f 89/2/1 73/1/1 72/1/1 88/2/1
f 88/2/1 72/1/1 71/1/1 87/2/1
f 87/2/1 71/1/1 70/1/1 86/2/1
f 86/2/1 70/1/1 69/1/1 85/2/1
f 85/2/1 69/1/1 68/1/1 84/2/1
f 42/15/1 41/13/1 59/13/1 76/15/1
f 76/15/1 59/13/1 58/13/1 77/15/1
f 77/15/1 58/13/1 57/13/1 78/15/1
f 78/15/1 57/13/1 56/13/1 79/15/1
f 79/15/1 56/13/1 55/13/1 80/15/1
f 80/15/1 55/13/1 54/24/1 81/15/1
f 81/15/1 54/24/1 53/24/1 82/15/1
f 82/15/1 53/24/1 52/24/1 83/15/1
f 43/1/1 42/15/1 76/15/1 75/1/1
f 75/1/1 76/15/1 77/15/1 74/1/1
f 74/1/1 77/15/1 78/15/1 73/1/1
f 73/1/1 78/15/1 79/15/1 72/1/1
f 72/1/1 79/15/1 80/15/1 71/1/1
f 71/1/1 80/15/1 81/15/1 70/1/1
f 70/1/1 81/15/1 82/15/1 69/1/1
f 69/1/1 82/15/1 83/15/1 68/1/1
f 41/13/1 31/8/1 60/8/1 59/13/1
f 59/13/1 60/8/1 61/8/1 58/13/1
f 58/13/1 61/8/1 62/8/1 57/13/1
f 57/13/1 62/8/1 63/8/1 56/13/1
f 56/13/1 63/8/1 64/8/1 55/13/1
f 55/13/1 64/8/1 65/8/1 54/24/1
f 54/24/1 65/8/1 66/12/1 53/24/1
f 53/24/1 66/12/1 67/8/1 52/24/1
f 112/12/1 115/8/1 92/8/1 94/8/1
f 116/12/1 119/12/1 100/12/1 101/8/1
f 120/12/1 123/8/1 97/8/1 98/8/1
f 124/12/1 112/12/1 94/8/1 95/8/1
f 126/12/1 116/12/1 101/8/1 93/8/1
f 128/12/1 120/12/1 98/8/1 99/8/1
f 130/12/1 124/12/1 95/8/1 96/8/1
f 119/12/1 128/12/1 99/8/1 100/12/1
f 123/8/1 130/12/1 96/8/1 97/8/1
f 132/2/1 135/2/1 107/2/1 108/2/1
f 136/2/1 139/2/1 111/2/1 102/2/1
f 140/2/1 143/2/1 104/2/1 105/2/1
f 144/2/1 132/2/1 108/2/1 109/2/1
f 146/2/1 140/2/1 105/2/1 106/2/1
f 148/2/1 144/2/1 109/2/1 110/2/1
f 135/2/1 146/2/1 106/2/1 107/2/1
f 143/2/1 151/2/1 103/2/1 104/2/1
f 139/2/1 148/2/1 110/2/1 111/2/1
f 63/8/1 62/8/1 131/8/1 122/12/1
f 122/12/1 131/8/1 130/12/1 123/8/1
f 66/12/1 65/8/1 129/8/1 118/12/1
f 118/12/1 129/8/1 128/12/1 119/12/1
f 62/8/1 61/8/1 125/8/1 131/8/1
f 131/8/1 125/8/1 124/12/1 130/12/1
f 65/8/1 64/8/1 121/8/1 129/8/1
f 129/8/1 121/8/1 120/12/1 128/12/1
f 47/8/1 67/8/1 117/8/1 127/8/1
f 127/8/1 117/8/1 116/12/1 126/12/1
f 61/8/1 60/8/1 113/8/1 125/8/1
f 125/8/1 113/8/1 112/12/1 124/12/1
f 64/8/1 63/8/1 122/12/1 121/8/1
f 121/8/1 122/12/1 123/8/1 120/12/1
f 67/8/1 66/12/1 118/12/1 117/8/1
f 117/8/1 118/12/1 119/12/1 116/12/1
f 60/8/1 31/8/1 114/12/1 113/8/1
f 113/8/1 114/12/1 115/8/1 112/12/1
f 91/2/1 90/2/1 149/2/1 138/2/1
f 138/2/1 149/2/1 148/2/1 139/2/1
f 84/2/1 48/2/1 150/2/1 142/2/1
f 142/2/1 150/2/1 151/2/1 143/2/1
f 87/2/1 86/2/1 147/2/1 134/2/1
f 134/2/1 147/2/1 146/2/1 135/2/1
f 90/2/1 89/2/1 145/2/1 149/2/1
f 149/2/1 145/2/1 144/2/1 148/2/1
f 86/2/1 85/2/1 141/2/1 147/2/1
f 147/2/1 141/2/1 140/2/1 146/2/1
f 89/2/1 88/2/1 133/2/1 145/2/1
f 145/2/1 133/2/1 132/2/1 144/2/1
f 85/2/1 84/2/1 142/2/1 141/2/1
f 141/2/1 142/2/1 143/2/1 140/2/1
f 32/2/1 91/2/1 138/2/1 137/2/1
f 137/2/1 138/2/1 139/2/1 136/2/1
f 88/2/1 87/2/1 134/2/1 133/2/1
f 133/2/1 134/2/1 135/2/1 132/2/1
f 37/5/23 33/8/23 153/8/23 156/5/23
f 31/8/24 35/10/24 154/10/24 152/8/24
f 36/12/25 37/5/25 156/5/25 155/12/25
f 35/10/26 36/12/26 155/12/26 154/10/26
f 39/23/26 38/2/26 159/2/26 160/23/26
f 34/2/23 40/2/23 161/2/23 158/2/23
f 38/2/24 32/2/24 157/2/24 159/2/24
f 40/2/25 39/23/25 160/23/25 161/2/25
f 156/5/27 153/8/27 163/8/27 166/5/27
f 154/10/28 155/12/28 165/12/28 164/10/28
f 152/8/29 154/10/29 164/10/29 162/8/29
f 155/12/30 156/5/30 166/5/30 165/12/30
f 166/5/31 163/8/31 168/8/31 171/5/31
f 164/10/32 165/12/32 170/12/32 169/10/32
f 162/8/33 164/10/33 169/10/33 167/8/33
f 165/12/34 166/5/34 171/5/34 170/12/34
f 159/2/35 157/2/35 167/8/35 169/10/35
f 160/23/36 159/2/36 169/10/36 170/12/36
f 161/2/37 160/23/37 170/12/37 171/5/37
f 158/2/38 161/2/38 171/5/38 168/8/38
f 163/8/6 153/8/6 158/2/6 168/8/6
